STARTFONT 2.3
FONT -FontForge-Courgette-Book-R-Normal--28-280-72-72-P-145-ISO10646-1
SIZE 28 72 72  2
FONTBOUNDINGBOX 37 36 -6 -8
COMMENT "Generated by fontforge, http://fontforge.sourceforge.net"
COMMENT "Copyright (c) 2012, Sorkin Type Co (www.sorkintype.com) with Reserved Font Name "Courgette"."
STARTPROPERTIES 41
FOUNDRY "FontForge"
FAMILY_NAME "Courgette"
WEIGHT_NAME "Book"
SLANT "R"
SETWIDTH_NAME "Normal"
ADD_STYLE_NAME ""
PIXEL_SIZE 28
POINT_SIZE 280
RESOLUTION_X 72
RESOLUTION_Y 72
SPACING "P"
AVERAGE_WIDTH 145
CHARSET_REGISTRY "ISO10646"
CHARSET_ENCODING "1"
FONTNAME_REGISTRY ""
CHARSET_COLLECTIONS "ISO8859-2 ISO8859-9 ISO8859-4 ISO10646-1"
BITS_PER_PIXEL 2
FONT_NAME "Courgette-Regular"
FACE_NAME "Courgette Regular"
COPYRIGHT "Copyright (c) 2012, Sorkin Type Co (www.sorkintype.com) with Reserved Font Name "Courgette"."
FONT_VERSION "1.002"
FONT_ASCENT 22
FONT_DESCENT 6
UNDERLINE_POSITION -3
UNDERLINE_THICKNESS 2
X_HEIGHT 13
CAP_HEIGHT 20
DEFAULT_CHAR 1
RAW_ASCENT 799
RAW_DESCENT 200
NORM_SPACE 9
RELATIVE_WEIGHT 40
RELATIVE_SETWIDTH 50
SUPERSCRIPT_X 0
SUPERSCRIPT_Y 13
SUPERSCRIPT_SIZE 18
SUBSCRIPT_X 0
SUBSCRIPT_Y 3
SUBSCRIPT_SIZE 18
AVG_LOWERCASE_WIDTH 139
AVG_UPPERCASE_WIDTH 163
ENDPROPERTIES
CHARS 407
STARTCHAR .null.dup1
ENCODING 0
SWIDTH 0 0
DWIDTH 0 0
BBX 1 1 0 0
BITMAP
00
ENDCHAR
STARTCHAR uni0001
ENCODING 1
SWIDTH 0 0
DWIDTH 0 0
BBX 1 1 0 0
BITMAP
00
ENDCHAR
STARTCHAR uni0002
ENCODING 2
SWIDTH 0 0
DWIDTH 0 0
BBX 1 1 0 0
BITMAP
00
ENDCHAR
STARTCHAR uni0003
ENCODING 3
SWIDTH 0 0
DWIDTH 0 0
BBX 1 1 0 0
BITMAP
00
ENDCHAR
STARTCHAR uni0004
ENCODING 4
SWIDTH 0 0
DWIDTH 0 0
BBX 1 1 0 0
BITMAP
00
ENDCHAR
STARTCHAR uni0005
ENCODING 5
SWIDTH 0 0
DWIDTH 0 0
BBX 1 1 0 0
BITMAP
00
ENDCHAR
STARTCHAR uni0006
ENCODING 6
SWIDTH 0 0
DWIDTH 0 0
BBX 1 1 0 0
BITMAP
00
ENDCHAR
STARTCHAR uni0007
ENCODING 7
SWIDTH 0 0
DWIDTH 0 0
BBX 1 1 0 0
BITMAP
00
ENDCHAR
STARTCHAR uni0008
ENCODING 8
SWIDTH 0 0
DWIDTH 0 0
BBX 1 1 0 0
BITMAP
00
ENDCHAR
STARTCHAR uni0009
ENCODING 9
SWIDTH 0 0
DWIDTH 0 0
BBX 1 1 0 0
BITMAP
00
ENDCHAR
STARTCHAR nonmarkingreturn
ENCODING 13
SWIDTH 0 0
DWIDTH 0 0
BBX 1 1 0 0
BITMAP
00
ENDCHAR
STARTCHAR uni0015
ENCODING 21
SWIDTH 0 0
DWIDTH 0 0
BBX 1 1 0 0
BITMAP
00
ENDCHAR
STARTCHAR uni0016
ENCODING 22
SWIDTH 0 0
DWIDTH 0 0
BBX 1 1 0 0
BITMAP
00
ENDCHAR
STARTCHAR uni0017
ENCODING 23
SWIDTH 0 0
DWIDTH 0 0
BBX 1 1 0 0
BITMAP
00
ENDCHAR
STARTCHAR uni0018
ENCODING 24
SWIDTH 0 0
DWIDTH 0 0
BBX 1 1 0 0
BITMAP
00
ENDCHAR
STARTCHAR uni0019
ENCODING 25
SWIDTH 0 0
DWIDTH 0 0
BBX 1 1 0 0
BITMAP
00
ENDCHAR
STARTCHAR space
ENCODING 32
SWIDTH 307 0
DWIDTH 9 0
BBX 1 1 0 0
BITMAP
00
ENDCHAR
STARTCHAR exclam
ENCODING 33
SWIDTH 417 0
DWIDTH 12 0
BBX 11 21 2 0
BITMAP
0001F8
0007F4
000FE0
002FD0
003F80
007F00
00FE00
01FC00
02F800
02F000
03E000
07D000
07C000
078000
070000
060000
000000
7E0000
BF8000
BF4000
7E0000
ENDCHAR
STARTCHAR quotedbl
ENCODING 34
SWIDTH 437 0
DWIDTH 12 0
BBX 11 7 4 16
BITMAP
1F42F4
7F4BF0
BE0FD0
FC1F80
F41F00
E01E00
900800
ENDCHAR
STARTCHAR numbersign
ENCODING 35
SWIDTH 725 0
DWIDTH 20 0
BBX 19 21 1 0
BITMAP
00000B01E0
00002F07D0
00003E0BC0
00007D0F80
0000B81F40
0000F42F00
0001F03D00
02FFFFFFFC
0BFFFFFFF4
000BC1F400
000B81F000
000F42E000
001F02D000
2FFFFFFFC0
7FFFFFFF80
007C0B4000
00B80F0000
00F41E0000
01F02D0000
02D03C0000
0280740000
ENDCHAR
STARTCHAR dollar
ENCODING 36
SWIDTH 545 0
DWIDTH 15 0
BBX 16 29 1 -4
BITMAP
0000002C
000000B8
000001F4
000002E0
0001BFD0
000BEAF4
002F40B8
007D007C
00F8007D
02F400BD
02F401FC
03F407F8
03F80FF0
02FC0BD0
01FE0000
00FF4000
007FC000
002FD000
000BF000
1903F000
3D02F000
7D02F000
7E03D000
3FAF8000
0BF90000
07800000
0B400000
0E000000
05000000
ENDCHAR
STARTCHAR percent
ENCODING 37
SWIDTH 876 0
DWIDTH 25 0
BBX 21 21 2 0
BITMAP
01BE40002D00
07EBC000BC00
1F83D002F400
3F03E007E000
BD07D01F8000
BC0BD03F0000
F81F80BD0000
B82F42F40000
7EFD07D00000
1BE01F800000
00007E000000
0000FC06F800
0002F02FAF00
000BD07E1F40
001F40F81F80
007E02F41F40
00F803F02F40
03E003E07E00
0BC002E0FC00
1F4001FBF400
3D00007F8000
ENDCHAR
STARTCHAR ampersand
ENCODING 38
SWIDTH 563 0
DWIDTH 16 0
BBX 15 21 1 0
BITMAP
0001BF80
001FEAF0
00BF4078
02FC007C
07F400BC
0BE002F8
0FC01FF0
0FC02FD0
0FC00A40
0BE54000
02FFC000
06FE4000
1FE40000
3F809554
7F02FFF8
BD00BF90
FC007C00
FC00B800
BD02F400
7FAFD000
0BF90000
ENDCHAR
STARTCHAR quotesingle
ENCODING 39
SWIDTH 231 0
DWIDTH 7 0
BBX 5 7 4 16
BITMAP
1F40
7F40
BE00
FC00
F400
E000
9000
ENDCHAR
STARTCHAR parenleft
ENCODING 40
SWIDTH 478 0
DWIDTH 13 0
BBX 14 32 3 -7
BITMAP
00000050
000007D0
00002F40
0000BC00
0002F000
000BD000
002F4000
007E0000
00FC0000
02F40000
03E00000
0BD00000
0FC00000
1F800000
2F400000
3F000000
7E000000
BD000000
BD000000
FD000000
FC000000
FC000000
FC000000
BD000000
BD000000
7D000000
3E000000
2F000000
1F400000
0BC00000
03E00000
00B40000
ENDCHAR
STARTCHAR parenright
ENCODING 41
SWIDTH 478 0
DWIDTH 13 0
BBX 14 32 -3 -7
BITMAP
00005000
0001F800
00007D00
00002F00
00000F80
00000BC0
000007D0
000007E0
000003F0
000003F0
000003F0
000003F0
000003F0
000003F0
000007E0
000007E0
00000BD0
00000FC0
00001F80
00002F40
00003F00
00007D00
0000FC00
0002F400
0007E000
000BC000
002F4000
007D0000
01F40000
07D00000
2F400000
B4000000
ENDCHAR
STARTCHAR asterisk
ENCODING 42
SWIDTH 518 0
DWIDTH 15 0
BBX 10 11 4 10
BITMAP
007D00
00BD00
50F800
B1F040
BDEBE0
2FFFE0
0BF400
1FF400
787D00
E02E00
401D00
ENDCHAR
STARTCHAR plus
ENCODING 43
SWIDTH 617 0
DWIDTH 17 0
BBX 14 14 2 3
BITMAP
000A0000
001E0000
001E0000
001E0000
001E0000
001E0000
6AAFAA90
FFFFFFD0
001E0000
001E0000
001E0000
001E0000
001E0000
000D0000
ENDCHAR
STARTCHAR comma
ENCODING 44
SWIDTH 312 0
DWIDTH 9 0
BBX 6 8 0 -4
BITMAP
1F80
2FC0
1FD0
0FC0
0F80
1F00
7D00
E000
ENDCHAR
STARTCHAR hyphen
ENCODING 45
SWIDTH 452 0
DWIDTH 13 0
BBX 9 2 2 7
BITMAP
7FFF80
BFFF40
ENDCHAR
STARTCHAR period
ENCODING 46
SWIDTH 270 0
DWIDTH 8 0
BBX 5 4 0 0
BITMAP
2F40
7FC0
7FC0
2F40
ENDCHAR
STARTCHAR slash
ENCODING 47
SWIDTH 405 0
DWIDTH 11 0
BBX 18 30 -2 -5
BITMAP
0000000050
00000001F0
00000003E0
0000000BC0
0000001F40
0000002E00
0000007D00
000000F800
000002F000
000003E000
00000BC000
00001F4000
00002E0000
00007D0000
0000F80000
0001F00000
0003E00000
000BC00000
000F400000
002F000000
007D000000
00B8000000
01F4000000
03E0000000
0BC0000000
0F40000000
2F00000000
7D00000000
B800000000
E000000000
ENDCHAR
STARTCHAR zero
ENCODING 48
SWIDTH 621 0
DWIDTH 17 0
BBX 16 21 2 0
BITMAP
00006F90
0007FAF4
001F80BC
007F007D
01FC007D
02F4007D
07E000BD
0FD000BD
1F8000FC
3F4001FC
7F0002F8
7E0003F4
BD000BE0
FC000FD0
FC002F80
F8007F40
F800BE00
F802F800
B80BE000
7EBF8000
1BF80000
ENDCHAR
STARTCHAR one
ENCODING 49
SWIDTH 405 0
DWIDTH 11 0
BBX 10 21 2 0
BITMAP
000B80
002FD0
01FFD0
0BFFC0
1F9FC0
041F80
002F40
003F00
007E00
00BD00
00F800
01F400
02F000
03E000
0BC000
0F8000
1F0000
2E0000
7C0000
B40000
D00000
ENDCHAR
STARTCHAR two
ENCODING 50
SWIDTH 524 0
DWIDTH 15 0
BBX 15 21 0 0
BITMAP
0001BF80
000BEBE0
003F40F4
00BD00B8
00FC00BC
01FC00F8
01FE02F8
00FE07F4
00140FE0
00002FC0
0000BF00
0002FD00
000BF400
002F8000
00BE0000
02F40000
0BD00000
1F000140
3EBFFF40
BFBFFF40
7406F900
ENDCHAR
STARTCHAR three
ENCODING 51
SWIDTH 537 0
DWIDTH 15 0
BBX 15 21 1 0
BITMAP
0002FE40
002FABD0
00BD02F0
01F801F4
03F001F4
03F002F4
07F803F0
03F80BE0
00502FC0
0000BF40
001BFD00
003FE400
002BF400
0000F800
0000FC00
2E00FC00
7E01F800
BC02F400
BC0BE000
7FBF8000
1BF80000
ENDCHAR
STARTCHAR four
ENCODING 52
SWIDTH 529 0
DWIDTH 15 0
BBX 14 21 1 0
BITMAP
002D0000
003F0000
003F0000
007F0000
00BE0000
00FC0500
02F80B80
03F40FC0
0BE00FC0
0FC01F80
2F402F40
7E007E00
7D00BF80
3FFFFFE0
0696F400
0003E000
0007C000
000F8000
001F0000
003D0000
00740000
ENDCHAR
STARTCHAR five
ENCODING 53
SWIDTH 540 0
DWIDTH 15 0
BBX 16 21 1 0
BITMAP
000BA55A
001FFFFE
002F6FFD
003E0150
007D0000
00F80000
01F40000
03FBF800
07FEBF00
0BE02F40
07401F80
00001F80
00002F80
00002F80
19003F40
7D007E00
FC00FD00
F802F800
B80BE000
7EBF8000
1BF80000
ENDCHAR
STARTCHAR six
ENCODING 54
SWIDTH 554 0
DWIDTH 16 0
BBX 14 21 2 0
BITMAP
0001BF40
000BFBE0
002F41F0
00BD01F0
02F407E0
07E01FD0
0FD00B40
1F800000
2F459000
7F7FF800
7FE47E00
BF803F00
FF002F00
FE003F00
FD003F00
FC007E00
FC00FD00
BC02F800
7D07E000
2FAF8000
07F90000
ENDCHAR
STARTCHAR seven
ENCODING 55
SWIDTH 473 0
DWIDTH 13 0
BBX 13 21 3 0
BITMAP
7501AE00
7FFFFF40
3FFFAF00
1AA47E00
0000F800
0002F400
000BD000
001F8000
003F0000
00BD0000
01F80000
03F00000
0BD00000
0FC00000
2F400000
3F000000
7E000000
BD000000
FC000000
FC000000
7C000000
ENDCHAR
STARTCHAR eight
ENCODING 56
SWIDTH 524 0
DWIDTH 15 0
BBX 15 21 1 0
BITMAP
0006FE00
001FAFD0
007C07F0
00F402F4
01F002F4
02F002F4
02F402F0
02F807E0
01FC0FD0
00FE7F40
00BFFD00
003FD000
01FFE000
0BD7F000
2F02F400
7D00F800
BD00B800
BD00F400
7E01E000
2FAB8000
07F90000
ENDCHAR
STARTCHAR nine
ENCODING 57
SWIDTH 554 0
DWIDTH 16 0
BBX 15 21 1 0
BITMAP
0001BE40
001FEBD0
007E02F0
01F801F4
03F401F4
07E002F4
0BD002F4
0FD003F4
0FC00BF0
0FC01FE0
0BD07FE0
07FAFFD0
01BE4FC0
00001F80
00002F00
04007D00
3E00BC00
7D02F400
BC0BD000
7EBF4000
1BE40000
ENDCHAR
STARTCHAR colon
ENCODING 58
SWIDTH 312 0
DWIDTH 9 0
BBX 7 13 1 0
BITMAP
07E0
0FF4
0FF4
07E0
0000
0000
0000
0000
0000
7E00
FF40
FF00
7E00
ENDCHAR
STARTCHAR semicolon
ENCODING 59
SWIDTH 312 0
DWIDTH 9 0
BBX 8 17 0 -4
BITMAP
01F8
02FE
02FD
01F8
0000
0000
0000
0000
0000
1F80
2FC0
1FD0
0FC0
0F80
1F00
7D00
E000
ENDCHAR
STARTCHAR less
ENCODING 60
SWIDTH 637 0
DWIDTH 18 0
BBX 14 15 2 1
BITMAP
000000A0
00000BE0
00007F40
0007F800
006F9000
02FD0000
2FE00000
FF400000
7F900000
0BF80000
00BF4000
001BF400
0001FE00
00001FD0
000002E0
ENDCHAR
STARTCHAR equal
ENCODING 61
SWIDTH 617 0
DWIDTH 17 0
BBX 14 7 2 7
BITMAP
7FFFFFF0
6AAAAA90
00000000
00000000
00000000
BFFFFFE0
6AAAAA90
ENDCHAR
STARTCHAR greater
ENCODING 62
SWIDTH 606 0
DWIDTH 17 0
BBX 14 15 2 1
BITMAP
B4000000
BF400000
1BE40000
01FE4000
002FE000
0002FE00
00007FD0
00001FF0
0000BF80
0007F800
007F9000
02FD0000
2FD00000
BE000000
A0000000
ENDCHAR
STARTCHAR question
ENCODING 63
SWIDTH 516 0
DWIDTH 14 0
BBX 13 21 2 0
BITMAP
000BF900
003FAF40
00FC07C0
01F807C0
02F807C0
01F80FC0
00A42F80
0000FF00
0007FD00
002FE000
00BF8000
01FD0000
03F40000
07D00000
07800000
02000000
00000000
7E000000
BF800000
BF400000
2E000000
ENDCHAR
STARTCHAR at
ENCODING 64
SWIDTH 905 0
DWIDTH 25 0
BBX 24 22 1 -4
BITMAP
000006BFE400
0000BFAABF80
0007E40007F0
002E000000F8
00B80000007D
02E006F8B42E
07C01FAFF82E
0F407D0BF01E
2F01F807E01E
3E02F00BC02E
7D03E00F803D
7D07E02F407C
BC0BD07F00F4
BC0BD0BE02E0
BC07E2AE1F80
7D02FE1FFD00
7E0054069000
2F4000000000
1FC000000000
07F400050000
01FFAABD0000
001AFE900000
ENDCHAR
STARTCHAR A
ENCODING 65
SWIDTH 615 0
DWIDTH 17 0
BBX 20 21 -2 0
BITMAP
00000000AF
00000007FF
0000002E7E
000000B87D
000002E0FC
00000B81F8
00001F02F4
00007D03F0
0000B807E0
0001F00FD0
0003FBFFFD
006FFFFFFC
00FF957F90
002E003F00
007C007E00
00F8007D00
02F000BD00
07E000BD00
1F8000BD60
BF0000BFE0
B800002F80
ENDCHAR
STARTCHAR B
ENCODING 66
SWIDTH 551 0
DWIDTH 15 0
BBX 16 21 1 0
BITMAP
006BFE90
0BFFABF4
2FE400BD
0A18007E
007F003E
00FE007E
02FC00BD
03F401FC
07F007F4
0FD06FD0
1FEBFE00
2FFFF800
3F907E00
7E001F40
7D001F80
BC001F80
BC002F40
B800BE00
BC06F800
3FAFD000
1BF90000
ENDCHAR
STARTCHAR C
ENCODING 67
SWIDTH 533 0
DWIDTH 15 0
BBX 16 21 1 0
BITMAP
00001BE4
0001FEBD
000BE01E
002F801F
00BE002F
01FC007E
03F401FD
0BE00BF8
0FD00BF0
2F800280
3F400000
7F000000
7F000000
BE000000
BE000000
BE000000
BE000000
7F000A00
3F407E00
1FEBFD00
02FF9000
ENDCHAR
STARTCHAR D
ENCODING 68
SWIDTH 630 0
DWIDTH 18 0
BBX 17 21 1 0
BITMAP
01AFFE4000
0FFEABF400
0FE000BE00
0140002F40
002F400F80
007F400FC0
00BE000FC0
01FC000FC0
02F8000FC0
07F4001F80
0BE0002F80
0FD0003F00
1FC000BE00
2F8001FC00
3F4007F400
7F000FE000
7E003F8000
BD01FE0000
BD0BF40000
7EBF800000
1BE8000000
ENDCHAR
STARTCHAR E
ENCODING 69
SWIDTH 509 0
DWIDTH 14 0
BBX 16 21 1 0
BITMAP
0001BFE0
000BFAB8
007F802D
00FE003D
02F800BD
07F002F8
0BE01FF4
0BD01FD0
0BD00500
0BD00000
03FA8000
01FFE000
07FE4000
1FF40000
3F800000
BF000000
BE001800
FD007C00
BE01F800
3FAFE000
0AFE4000
ENDCHAR
STARTCHAR F
ENCODING 70
SWIDTH 518 0
DWIDTH 15 0
BBX 17 21 1 0
BITMAP
06FEA54640
2FFFFFFF00
7FFFFFF900
7E01F00000
3803E00000
0007D00000
000FC00000
001F800000
002F400000
003FAA0000
00BFFF8000
07FFFF8000
06FD000000
01FC000000
02F8000000
03F0000000
0BE0000000
1FC0000000
2F40000000
BD00000000
F400000000
ENDCHAR
STARTCHAR G
ENCODING 71
SWIDTH 598 0
DWIDTH 17 0
BBX 16 21 1 0
BITMAP
00001BE4
0001FEBD
000BE01E
002F801F
00BE002F
01FC007F
03F401FD
0BE007F8
0FD00BF0
1FC00240
2F800000
3F401405
7F00BFFD
7E00BFFC
BE001FE0
BE000F00
7E001F00
7E002D00
3F40B800
1FEBE000
02FE4000
ENDCHAR
STARTCHAR H
ENCODING 72
SWIDTH 668 0
DWIDTH 19 0
BBX 21 21 -1 0
BITMAP
00AFD0000F40
01FBF4001F80
0052F4002F80
0003F4002F40
0003F0003F00
0007E0007E00
000BE000BD00
000FD000FC00
001FC001F800
002FEFFFFD00
01FFAAABF800
00BF000BD000
00BD000FC000
00FC001F8000
01F8002F4000
03F0003F0000
07E0007E0000
0FC000BD0000
2F4000BD5000
BD0000BFD000
B400002E4000
ENDCHAR
STARTCHAR I
ENCODING 73
SWIDTH 327 0
DWIDTH 9 0
BBX 10 21 0 0
BITMAP
01BF80
03FBE0
0047E0
0007E0
000BD0
000FD0
000FC0
001F80
002F80
003F40
007F00
00BE00
00FD00
01F800
02F400
07F000
0BD000
1F8000
3F0000
FD0000
E40000
ENDCHAR
STARTCHAR J
ENCODING 74
SWIDTH 393 0
DWIDTH 11 0
BBX 17 29 -5 -8
BITMAP
00001AF900
0001BFAF80
0007FD1FC0
0007E01F80
0001802F80
0000003F40
0000007F40
0000007F00
000000BE00
000000FD00
000001FC00
000002F800
000003F400
000007F000
00000FE000
00001FC000
00002F8000
00007F4000
0000BE0000
0001FD0000
0002F80000
0007F00000
000FD00000
002F800000
007F000000
01FD000000
07F4000000
2FD0000000
B900000000
ENDCHAR
STARTCHAR K
ENCODING 75
SWIDTH 616 0
DWIDTH 17 0
BBX 19 21 -1 0
BITMAP
01BF4001E4
03FBD001FC
0147E000FC
0007E001FC
000BE002F8
000FD003F4
000FC00BE0
001FC02F80
002F80BE00
003F42F400
007F1F8000
00BE7D0000
00FFF80000
01FDFD0000
02F87F4000
07F42FC000
0BE00FE000
1FC007F400
3F4002FC00
BE0000FFA0
F400002F90
ENDCHAR
STARTCHAR L
ENCODING 76
SWIDTH 517 0
DWIDTH 15 0
BBX 17 21 -1 0
BITMAP
000006F800
00001FAF00
00007E0B40
0001FC0780
0002F40B80
0007E01F80
000FD07F40
001FC1FE00
002F87FC00
003F47F400
007E014000
00BD000000
01FC000000
02F8000000
03F0000000
07E0000000
0BC0000000
1F40550000
7E6FFFD000
BFFFFFE000
3E9401B000
ENDCHAR
STARTCHAR M
ENCODING 77
SWIDTH 931 0
DWIDTH 26 0
BBX 29 21 -3 0
BITMAP
00000002F8001B80
0000001FFC00BFC0
0000007EF802EF80
000001F2F407DF40
000003D7E00F6F00
00000B8BD02E3E00
00001F0FC07C7D00
00003D1F80F4BC00
0000BC2F81E1F800
0000F42F43D2F800
0002E03F0B82F400
0007D07E0F43F000
000B807E2E07E000
001F40BD3D0BD000
003E00BDB80FC000
007C00BDF00FC000
01F800BEE01F8000
02F000BFC01F8000
0BD000BF400FD600
7F4000BE000BFE00
BD0000380002F800
ENDCHAR
STARTCHAR N
ENCODING 78
SWIDTH 708 0
DWIDTH 20 0
BBX 22 21 0 0
BITMAP
00002E001F40
0001FF002FD0
0003FE000FE0
000BFE000BE0
001F7E000BE0
003D7E000BD0
007C7E000FC0
00F47E001F40
01F07E002F00
02E07E003E00
07D07F007C00
0BC03F00F400
0F803F41F000
1F402F83D000
2F001F878000
3E000FCB4000
3E000FEE0000
7D0007FD0000
7C0003FC0000
7C0001F80000
280000740000
ENDCHAR
STARTCHAR O
ENCODING 79
SWIDTH 655 0
DWIDTH 18 0
BBX 18 21 1 0
BITMAP
00001BF900
0001FEAF40
0007F40BC0
002FC007D0
007F4003E0
00FD0003E0
02F80007E0
07F40007E0
0BE0000BE0
1FD0000FD0
2F80001FC0
2F40002F80
3F00007F40
7F0000BE00
7E0001FD00
7E0003F400
7E000BE000
3E002F8000
2F40BE0000
0BEBF40000
01BE800000
ENDCHAR
STARTCHAR P
ENCODING 80
SWIDTH 553 0
DWIDTH 16 0
BBX 19 21 -1 0
BITMAP
0001BFE900
002FFEAF80
00FF9007E0
00FD0002F0
0021E002F4
0003F402F4
0007E003F0
000BD00BE0
001FC02FD0
002F80BF40
003F47FD00
007FBFE000
00BFF90000
00FC000000
01F8000000
03F0000000
07E0000000
0FC0000000
2F40000000
BE00000000
B400000000
ENDCHAR
STARTCHAR Q
ENCODING 81
SWIDTH 655 0
DWIDTH 18 0
BBX 18 25 2 -4
BITMAP
00006FE000
0007FAFC00
002F802E00
00BE001F00
02F8001F40
07E0001F80
0FD0002F80
2F80002F40
3F00003F40
7E00007F00
BD0000BE00
BD0001FC00
BD0003F400
BD000BE000
BE001FD000
7F407F4000
2F81FD0000
0907F40000
006F900000
06FF400000
1FFFF80000
0006FF4000
00007FF410
00000BFFF0
000001BFD0
ENDCHAR
STARTCHAR R
ENCODING 82
SWIDTH 623 0
DWIDTH 17 0
BBX 19 22 -1 -1
BITMAP
0005BFF900
002FFAAF80
00BF4007E0
00785002F4
0001F401F4
0003F402F4
0007E003F4
000BD007F0
001FC01FD0
002F807F80
003F47FD00
007FFFE400
00BEFE4000
00FD3E0000
01F82F4000
03F40FC000
07E00BE000
0FD003F400
2F8002FC00
7E0000FF90
B800002FD0
0000000100
ENDCHAR
STARTCHAR S
ENCODING 83
SWIDTH 474 0
DWIDTH 13 0
BBX 16 21 0 0
BITMAP
0001BF80
000BEAF4
002F40B8
00BD007D
00F8007D
01F400BD
02F401FC
03F407F8
03F80FF0
02FC0780
01FE0000
00FF4000
007FC000
001FE000
000BF000
1903F000
3D02F000
7D01F000
7E02D000
2FAF4000
0BF90000
ENDCHAR
STARTCHAR T
ENCODING 84
SWIDTH 471 0
DWIDTH 13 0
BBX 16 21 2 0
BITMAP
1BFE951A
7FFFFFFD
FFFFFFF4
F903F000
B007E000
000BD000
000FC000
001F8000
002F4000
003F0000
007E0000
00BD0000
00FC0000
01F80000
02F40000
03F00000
07D00000
0FC00000
2F400000
BD000000
F4000000
ENDCHAR
STARTCHAR U
ENCODING 85
SWIDTH 624 0
DWIDTH 17 0
BBX 20 21 0 0
BITMAP
001F800078
002FD000BD
000FD001FC
000FC002F4
001F8007F0
002F400BE0
007F001FD0
00BD003FC0
00FC007F80
02F800FF40
03F001FF00
07E003FE00
0FD00BFD00
1F801EFC00
2F402DF800
3F00B5F400
7E01E2F400
7E0782F000
7F5E02F580
3FF801FF80
1F9000BE00
ENDCHAR
STARTCHAR V
ENCODING 86
SWIDTH 587 0
DWIDTH 16 0
BBX 19 22 2 0
BITMAP
00000007D0
06F8000FF0
3FFF0007F0
7FFF4003F4
191F4003F0
003F4007E0
007E000FD0
00FD002F80
02F8007F40
03F400FD00
07E002F800
0FD00BE000
1F801F8000
2F407E0000
3F01F80000
7E07E00000
BD1F800000
BC3E000000
BCB8000000
BEE0000000
3F80000000
1E00000000
ENDCHAR
STARTCHAR W
ENCODING 87
SWIDTH 941 0
DWIDTH 26 0
BBX 26 21 2 0
BITMAP
0AF80000000B80
7FFE0000001FD0
BFFF0000000FE0
292F4000000BF0
007F0001400BF0
00BD001FD007F0
01FC007F8007E0
03F801FF000BE0
07F007FD000BD0
0BE01FF8000FC0
1FC07FF4001F80
2F80FBF0002F40
3F02E7E0003E00
7E0BCBD000BD00
BD1F0BC001F800
FC3D0FC002E000
F8B80FC00BC000
F9E00FC01F4000
FAC00BC0BD0000
7F4007FBE00000
2E0001FE400000
ENDCHAR
STARTCHAR X
ENCODING 88
SWIDTH 552 0
DWIDTH 15 0
BBX 22 21 -2 0
BITMAP
00001D0007E0
0000BD002FD0
0000FD00FE00
0000FC02F400
0000FC0BD000
0000FC1F4000
0000FC7E0000
0000FDF80000
0000BEF00000
0000BFD00000
00007F400000
00007F000000
0000FF000000
0002FF400000
000BEF800000
001F5FC00000
007E0FE00000
01F80BF40000
07E003FDA000
2F8001FFD000
7D00006E4000
ENDCHAR
STARTCHAR Y
ENCODING 89
SWIDTH 580 0
DWIDTH 16 0
BBX 20 29 0 -8
BITMAP
001F800078
002FD000BD
000FD001F8
000FC003F4
001F8007F0
003F400FE0
007F001FC0
00BD003F80
01FC007F40
02F400FF00
03F002FE00
0BE003FD00
0FC00BFC00
1F801FF800
2F403EF400
3F00B6F000
7E01E7E000
7E078BC000
7E5E1F8000
7FF82F4000
1F907E0000
0000BC0000
0001F80000
0003E00000
000BC00000
002F400000
00BD000000
0BF4000000
1F80000000
ENDCHAR
STARTCHAR Z
ENCODING 90
SWIDTH 501 0
DWIDTH 14 0
BBX 18 21 -1 0
BITMAP
0064016F80
007FFFFFD0
003FFF9BE0
001BE42FD0
000000BF40
000002FE00
000007F800
00001FE000
00007F8000
0001FE0000
0007F80000
000FE00000
003F800000
00BE000000
02F8000000
07F0000000
0FC0000000
2F41AA8000
7E6FFFE000
7FFFFFF000
2F9401B000
ENDCHAR
STARTCHAR bracketleft
ENCODING 91
SWIDTH 396 0
DWIDTH 11 0
BBX 15 30 0 -5
BITMAP
00000550
00002FF4
00003F40
00007E00
0000BD00
0000FC00
0001F800
0002F400
0003E000
0007D000
000BC000
000F8000
001F4000
002F0000
003E0000
007D0000
00BC0000
00F80000
02F40000
03F00000
07E00000
0BD00000
0FC00000
1F800000
2F400000
3F000000
7E000000
BD000000
FE900000
BFD00000
ENDCHAR
STARTCHAR backslash
ENCODING 92
SWIDTH 464 0
DWIDTH 13 0
BBX 10 30 1 -5
BITMAP
500000
B80000
7C0000
3D0000
3D0000
2E0000
1F0000
0F4000
0F4000
0B8000
07C000
03D000
03D000
02E000
01F000
00F400
00B400
00B800
007C00
003D00
002E00
002E00
001F00
000F40
000B80
000B80
0007C0
0003D0
0002E0
0001E0
ENDCHAR
STARTCHAR bracketright
ENCODING 93
SWIDTH 394 0
DWIDTH 11 0
BBX 15 30 -2 -5
BITMAP
000006A4
00002FFC
000001F8
000001F4
000002F0
000003E0
000007D0
00000BC0
00000F80
00001F40
00002F00
00003E00
00007D00
0000BC00
0000F800
0001F400
0002F000
0003E000
0007D000
000BC000
001F8000
002F4000
003F0000
007E0000
00BC0000
00F80000
01F40000
02F00000
1BE00000
7FD00000
ENDCHAR
STARTCHAR asciicircum
ENCODING 94
SWIDTH 540 0
DWIDTH 15 0
BBX 13 12 2 9
BITMAP
000F0000
001F4000
003FC000
00BFD000
00FBE000
02F1F400
07D0B800
0B807D00
1F002E00
2D000F40
78000780
10000100
ENDCHAR
STARTCHAR underscore
ENCODING 95
SWIDTH 530 0
DWIDTH 15 0
BBX 19 2 -5 -5
BITMAP
3FFFFFFFFC
7FFFFFFFF4
ENDCHAR
STARTCHAR grave
ENCODING 96
SWIDTH 219 0
DWIDTH 6 0
BBX 4 7 1 15
BITMAP
7C
FD
FC
BC
3D
1E
05
ENDCHAR
STARTCHAR a
ENCODING 97
SWIDTH 541 0
DWIDTH 15 0
BBX 14 15 1 -1
BITMAP
001BE2E0
00BEBFF0
02F41FE0
0BD01FC0
1F802F80
3F403F00
7E007E00
BD00FD00
FD01FC00
FC03F800
FC0BF800
BC1DF840
7EB4FFC0
1F90BF40
00001500
ENDCHAR
STARTCHAR b
ENCODING 98
SWIDTH 525 0
DWIDTH 15 0
BBX 13 23 1 0
BITMAP
003C0000
007D0000
007D0000
00BD0000
00FC0000
01F80000
01F40000
02F00000
03E00000
07D2F900
0BDFBF00
0FB82F40
1FE02F80
2FC02F80
3F402F80
7F003F40
BD007F00
BC00BE00
F801FD00
F803F400
B81FE000
3FFF4000
1BE40000
ENDCHAR
STARTCHAR c
ENCODING 99
SWIDTH 465 0
DWIDTH 13 0
BBX 12 14 1 0
BITMAP
001BF4
00BEBD
03F42E
0FD03E
2F80BE
3F01FC
BE01F4
FD0000
FC0000
FC0000
FC0050
BD01E0
3FAF80
0BF900
ENDCHAR
STARTCHAR d
ENCODING 100
SWIDTH 557 0
DWIDTH 16 0
BBX 17 23 1 0
BITMAP
0000000780
0000000FC0
0000001F80
0000003F00
0000007E00
000000BD00
000000FC00
000001F800
000002F400
000BE7F000
007FBFE000
01F80FD000
07E00FC000
0FC01F8000
2F402F4000
3F003F4000
7E007F0000
BD00FE0000
BD01FD0000
BD07FD0000
BD0E7D6000
7FB87FE000
1BD01F8000
ENDCHAR
STARTCHAR e
ENCODING 101
SWIDTH 471 0
DWIDTH 13 0
BBX 12 14 1 0
BITMAP
001BF4
00BEBD
02F43E
0BD03E
1FC07E
2F41FD
7F07F8
BE6FD0
BFF900
FD0000
BD0010
7E01B0
2FABE0
0BFE40
ENDCHAR
STARTCHAR f
ENCODING 102
SWIDTH 393 0
DWIDTH 11 0
BBX 16 27 -1 -4
BITMAP
00000190
00001FFD
00007E2F
0000BC2F
0001F47F
0002F0FD
0003E068
0007D000
000BC000
000F8000
001FEA00
006FFF80
07FFFF80
07BE0000
007D0000
00BC0000
00FC0000
01F80000
02F40000
03F00000
07E00000
0BD00000
0FC00000
1F800000
3F400000
7E000000
78000000
ENDCHAR
STARTCHAR g
ENCODING 103
SWIDTH 526 0
DWIDTH 15 0
BBX 14 22 1 -8
BITMAP
001BE040
00BEBEE0
02F41FE0
0BD00FD0
1F801FC0
3F402F80
7F003F40
BE007F00
FD00FE00
FD02FD00
FC07FC00
BD1FF800
7FB9F400
1F92F000
0003E000
000BC000
000F8000
002F0000
00BD0000
02F80000
2FD00000
2A000000
ENDCHAR
STARTCHAR h
ENCODING 104
SWIDTH 555 0
DWIDTH 16 0
BBX 15 23 0 0
BITMAP
00078000
000BD000
000BD000
000FD000
000FC000
001F8000
002F4000
003F0000
003E0000
007D0BD0
00BC2FF4
00F8BFF4
01F5E2F4
02F783F0
03EE07E0
07FC0FC0
0BF01F80
1FD03F40
2F807F00
3F007E00
BE007E60
FC007FE0
78001F80
ENDCHAR
STARTCHAR i
ENCODING 105
SWIDTH 286 0
DWIDTH 8 0
BBX 9 21 0 0
BITMAP
001F40
003FC0
003F80
001F40
000000
000000
000000
02F800
02FC00
01FC00
01F800
02F000
03E000
0BD000
0F8000
1F4000
2F0000
3E0000
7FA000
3FE000
1F8000
ENDCHAR
STARTCHAR j
ENCODING 106
SWIDTH 281 0
DWIDTH 8 0
BBX 14 29 -5 -8
BITMAP
00001F80
00003FD0
00002FC0
00001F40
00000000
00000000
00000000
0000BD00
0000FE00
0000BE00
0000BE00
0000BD00
0000BD00
0000FC00
0001F800
0002F400
0003F000
0003E000
0007D000
000FC000
001F8000
002F4000
007E0000
00BC0000
01F40000
03E00000
0BC00000
7E000000
B8000000
ENDCHAR
STARTCHAR k
ENCODING 107
SWIDTH 497 0
DWIDTH 14 0
BBX 14 23 0 0
BITMAP
00078000
000BD000
000BD000
000FC000
000FC000
001F8000
002F4000
003F0000
003E0000
007D07D0
00BC07F0
00F807F0
01F40BE0
02F02F80
03E2FD00
07EFD000
0BFE0000
1FEF0000
2F5F8000
3F0FD000
BD07F980
FC02FF80
7400BE00
ENDCHAR
STARTCHAR l
ENCODING 108
SWIDTH 279 0
DWIDTH 8 0
BBX 8 23 1 0
BITMAP
002D
003F
003F
007E
00BD
00BD
00FC
01F8
02F4
03F0
07E0
0BD0
0FC0
1F80
2F40
3F00
7E00
BD00
FC00
FC00
FD90
BFC0
6E00
ENDCHAR
STARTCHAR m
ENCODING 109
SWIDTH 814 0
DWIDTH 23 0
BBX 22 14 0 0
BITMAP
02F407D01B80
02FC2FF07FE0
01FCBFF1FFE0
01F9F5F3D7E0
02F7C1EB0BD0
03EF03FD1F80
07FC07F42F40
0BF40BE07E00
0FD01FC0BD00
2F802F40FC00
3F007E00F800
BE00BD01FD80
FC00FC00FFC0
7800B4007E00
ENDCHAR
STARTCHAR n
ENCODING 110
SWIDTH 561 0
DWIDTH 16 0
BBX 15 14 0 0
BITMAP
02F407E0
02FC2FF4
01F8BFF8
01FAE1F4
02F782F4
03EE07E0
07FC0BD0
0BF41FC0
0FD02F40
2F803F00
3F007E00
BE007E50
FC003FF0
78001F80
ENDCHAR
STARTCHAR o
ENCODING 111
SWIDTH 514 0
DWIDTH 14 0
BBX 13 14 1 0
BITMAP
001BE400
00BEBD00
03F42F00
0BE02F40
1FC02F40
3F403F40
7F003F00
BE007E00
FD00FD00
FC01FC00
FC03F400
BC0FD000
3EBF4000
1BF80000
ENDCHAR
STARTCHAR p
ENCODING 112
SWIDTH 550 0
DWIDTH 15 0
BBX 17 22 -2 -8
BITMAP
007E06F800
007F6EBE00
002FB82F00
003FE02F40
003F802F40
007F403F40
00BE003F00
00BD007E00
00F800FD00
01F802F800
02F407F000
03F81FC000
07FFFE0000
07DBE40000
0BC0000000
0F80000000
1F40000000
2F00000000
3E00000000
7D00000000
FC00000000
B400000000
ENDCHAR
STARTCHAR q
ENCODING 113
SWIDTH 533 0
DWIDTH 15 0
BBX 14 22 1 -8
BITMAP
000BE400
007FBEE0
02F81FF0
07E00FE0
1FC01FD0
2F402F80
7F003F40
BE007F00
BD00FE00
BD02FC00
BD07F800
BD1EF400
7FB9F000
1BD2E000
0003D000
0007C000
000BC000
000F8000
001F4000
001F4000
000F8000
00078000
ENDCHAR
STARTCHAR r
ENCODING 114
SWIDTH 407 0
DWIDTH 11 0
BBX 13 14 0 0
BITMAP
02E01F40
03F87F80
02F5FF80
02F7DB00
02FB0000
03ED0000
07F80000
0BE00000
0FD00000
1F800000
2F400000
7F000000
BD000000
2C000000
ENDCHAR
STARTCHAR s
ENCODING 115
SWIDTH 423 0
DWIDTH 12 0
BBX 12 14 0 0
BITMAP
002FE4
01FAFD
03E03E
07E03E
07F028
03F400
02FD00
00FF00
007F40
142F80
781F80
BD1F80
7FBE00
1BE400
ENDCHAR
STARTCHAR t
ENCODING 116
SWIDTH 358 0
DWIDTH 10 0
BBX 10 18 2 0
BITMAP
003C00
00BD00
01FC00
02F400
7FFFE0
1FE940
0FC000
1F8000
2F4000
3F0000
7E0000
7D0000
BC0000
BC0000
FC0900
BD7C00
7FF400
2F9000
ENDCHAR
STARTCHAR u
ENCODING 117
SWIDTH 553 0
DWIDTH 15 0
BBX 15 14 0 0
BITMAP
01F80078
02FC00FC
00FC01F8
01F803F4
02F40BE0
03F01FD0
0BE02FC0
0FD07F40
2F81EF00
3F43AE00
7F0B3E00
7E7C3E50
3FF43FF0
1F801F80
ENDCHAR
STARTCHAR v
ENCODING 118
SWIDTH 510 0
DWIDTH 14 0
BBX 13 14 1 0
BITMAP
07E02F40
0BF02F80
03F01FC0
07E00FC0
0BD00F80
0FC01F80
2F402F00
3F003E00
7E007C00
BD01F400
FC07E000
FC1F4000
FFFD0000
7F900000
ENDCHAR
STARTCHAR w
ENCODING 119
SWIDTH 750 0
DWIDTH 21 0
BBX 20 14 1 0
BITMAP
0BD00000B8
0FF00680FD
07F00FC0BE
07E02F807E
07D07F007D
0BC0BE007D
1F81FD00BC
2F03FC00F4
3E0BF801F0
7D2DF403D0
BCB4F80B80
FED0FD6E00
FF40BFF400
79002F9000
ENDCHAR
STARTCHAR x
ENCODING 120
SWIDTH 467 0
DWIDTH 13 0
BBX 16 14 -1 0
BITMAP
002C00BD
00BD07F8
00FD1F80
00FD7E00
00BDB800
00BFE000
007F8000
003F4000
007F4000
00FF8000
02EFD000
0F87F540
7E02FF40
7800BD00
ENDCHAR
STARTCHAR y
ENCODING 121
SWIDTH 549 0
DWIDTH 15 0
BBX 15 22 1 -8
BITMAP
07E001F0
07F402F4
03F007F0
07F00FE0
0BE01FD0
0FC03FC0
1F80BF80
3F41FF40
7F03FF00
BD0B7D00
FC2DBC00
FDB4F800
FFD1F400
7E42F000
0003D000
000BC000
001F4000
007E0000
00FC0000
07F00000
2FC00000
29000000
ENDCHAR
STARTCHAR z
ENCODING 122
SWIDTH 430 0
DWIDTH 12 0
BBX 13 14 0 0
BITMAP
02E41B40
02FFFF80
00AA6F80
0000BF00
0002FC00
001FE000
007F8000
01FD0000
07F40000
1FD00000
3F400000
BEBFD000
FFFFF000
7941B000
ENDCHAR
STARTCHAR braceleft
ENCODING 123
SWIDTH 424 0
DWIDTH 12 0
BBX 15 30 1 -5
BITMAP
00000690
00001FF4
00003F40
0000BD00
0000FC00
0001F800
0001F400
0002F400
0003F000
0007E000
000BD000
000FC000
002F4000
00BF0000
0FF80000
1F900000
07D00000
03E00000
03F00000
03E00000
07D00000
0BC00000
1F800000
2F400000
3F000000
7E000000
7D000000
BD000000
7F400000
2F800000
ENDCHAR
STARTCHAR bar
ENCODING 124
SWIDTH 306 0
DWIDTH 9 0
BBX 3 29 3 -5
BITMAP
28
7C
BC
BC
BC
BC
BC
BC
BC
BC
BC
BC
BC
BC
BC
BC
BC
BC
BC
BC
BC
BC
BC
BC
BC
BC
BC
BC
74
ENDCHAR
STARTCHAR braceright
ENCODING 125
SWIDTH 424 0
DWIDTH 12 0
BBX 14 30 -2 -5
BITMAP
00000640
00001FE0
000003F0
000002F0
000003F0
000007E0
00000BD0
00000FC0
00001F80
00002F40
00003F00
00003E00
00007E00
00003E00
00002F00
00001F80
0001FF80
0007F400
000FD000
001F8000
002F4000
003E0000
007E0000
00BD0000
00FC0000
01F80000
02F40000
07F00000
6FD00000
BF400000
ENDCHAR
STARTCHAR asciitilde
ENCODING 126
SWIDTH 624 0
DWIDTH 17 0
BBX 15 6 2 7
BITMAP
02F90018
1FFF4038
7FFFD0B4
B82FFFE0
E00BFF80
C001FD00
ENDCHAR
STARTCHAR nonbreakingspace
ENCODING 160
SWIDTH 293 0
DWIDTH 8 0
BBX 1 1 0 0
BITMAP
00
ENDCHAR
STARTCHAR exclamdown
ENCODING 161
SWIDTH 417 0
DWIDTH 12 0
BBX 11 22 0 -6
BITMAP
0002E0
000BF8
000BF8
0006F0
000000
000500
001D00
003C00
00B800
01F400
02F000
07E000
0BE000
0FD000
1FC000
2F8000
3F4000
3F4000
7F0000
7F0000
3F0000
1E0000
ENDCHAR
STARTCHAR cent
ENCODING 162
SWIDTH 487 0
DWIDTH 14 0
BBX 12 21 2 0
BITMAP
00002D
0000BC
0000F4
0001F0
002FE0
01FEF8
07F47D
0FD07D
2F80FC
7F02F8
BE01E0
BD0000
FD0000
FD0000
BD00A0
7F46D0
1FFF40
07A400
0B4000
0F0000
0E0000
ENDCHAR
STARTCHAR sterling
ENCODING 163
SWIDTH 665 0
DWIDTH 19 0
BBX 20 21 -1 0
BITMAP
0000000BF4
0000007FBD
000001FC1E
000003F41F
00000BE02F
00000FC07E
00002F80FD
00003F47F8
00007F0BF0
0000FE0280
0006FE9000
007FFFF800
0017F40000
0007F00000
000BE00000
059FC00000
2FFFC00000
783FF900A0
B47EBFFFE0
7EF81FFFD0
2F9002FE40
ENDCHAR
STARTCHAR currency
ENCODING 164
SWIDTH 572 0
DWIDTH 16 0
BBX 15 18 2 1
BITMAP
00100000
00B40014
00F401F8
00F997E0
00BFFF80
01FD3F00
03F42F40
0BD02F40
1FC02F40
2F403F40
3F407F00
3F00FD00
3F02FC00
2F07F000
2FAFE000
BAFAF000
E000B400
80003400
ENDCHAR
STARTCHAR yen
ENCODING 165
SWIDTH 583 0
DWIDTH 16 0
BBX 19 21 1 0
BITMAP
1B800001F8
3FE00007F8
57F4002FE0
02F8007F80
00FC01FE00
007D02F800
003E07E000
002E0FC000
001F2F4000
000F7E0000
000BFC0000
000BF40000
07FFFF8000
06FFFE0000
000FC00000
000F800000
0FFFFE0000
1BFFF80000
003E000000
007D000000
0078000000
ENDCHAR
STARTCHAR brokenbar
ENCODING 166
SWIDTH 292 0
DWIDTH 8 0
BBX 3 29 3 -5
BITMAP
74
B8
F8
F8
F8
F8
F8
F8
F8
F8
F8
F4
A0
00
00
00
74
B8
F8
F8
F8
F8
F8
F8
F8
F8
F8
F4
A0
ENDCHAR
STARTCHAR section
ENCODING 167
SWIDTH 583 0
DWIDTH 16 0
BBX 17 29 0 -6
BITMAP
0000059000
00007FFD00
0001FD1F40
0003F40B80
0007E00BC0
0007E01F80
000BE07F80
0007F0FF00
0007F46800
0002FC0000
001BFD0000
00BEBF0000
02F47F4000
03F02FC000
07E01FD000
07E00BE000
07F007E000
03F807E000
02FC07D000
01FE1F8000
00BFFE0000
003FE40000
001FC00000
280BD00000
7C07D00000
BC07D00000
BD0B800000
7FAF000000
1BF8000000
ENDCHAR
STARTCHAR dieresis
ENCODING 168
SWIDTH 412 0
DWIDTH 12 0
BBX 11 4 1 17
BITMAP
7E02E0
BF4BF8
BF07F4
7D02E0
ENDCHAR
STARTCHAR copyright
ENCODING 169
SWIDTH 871 0
DWIDTH 24 0
BBX 22 21 2 0
BITMAP
00006FFA0000
0007FAAFE000
002F4001F800
00F801902E00
03E02FFD0F40
0BC0BE1E0B80
1F42F40F07C0
2E07E02E03D0
7D0BD07E03D0
7C0F81FC03D0
B81F81F403D0
B82F400007C0
B82F40000B80
B81F40100F40
B80FC1F02E00
7C07FFD07D00
2E006901F400
1F400007E000
07E0006F4000
01FEABF80000
001BFE800000
ENDCHAR
STARTCHAR ordfeminine
ENCODING 170
SWIDTH 564 0
DWIDTH 16 0
BBX 13 13 3 8
BITMAP
00064600
00BFEF80
02F4BF40
0BD07E00
1F40BD00
3F00F800
7D02F400
BC03F000
FC0BE000
FC1FE000
BD7AE500
7FF2FE00
1F81F800
ENDCHAR
STARTCHAR guillemotleft
ENCODING 171
SWIDTH 662 0
DWIDTH 19 0
BBX 16 11 2 3
BITMAP
00064019
002F00B8
01F807E0
1BE06F80
7F42FD00
FD03F400
BE02F800
2F80BE00
0BE02F80
02F40BD0
00B802D0
ENDCHAR
STARTCHAR logicalnot
ENCODING 172
SWIDTH 729 0
DWIDTH 20 0
BBX 16 9 2 2
BITMAP
2AAAAAA9
BFFFFFFF
0000002F
0000002F
0000002E
0000002E
0000002E
0000002E
0000002D
ENDCHAR
STARTCHAR uni00AD
ENCODING 173
SWIDTH 833 0
DWIDTH 23 0
BBX 1 1 0 0
BITMAP
00
ENDCHAR
STARTCHAR registered
ENCODING 174
SWIDTH 742 0
DWIDTH 21 0
BBX 18 18 2 3
BITMAP
0001BF9000
001FEAFD00
00B9001F40
02E1A903C0
078BFFC1E0
0F0A42E0F0
2D02C2E0F0
3C0783D0F0
7807AF40F0
780BF900E0
780F7C01E0
782E2D03C0
3C3C1F8B80
2D24065F00
1F4000BD00
0BE417F400
01FFFF8000
001AA40000
ENDCHAR
STARTCHAR macron
ENCODING 175
SWIDTH 392 0
DWIDTH 11 0
BBX 10 2 2 16
BITMAP
BFFFE0
FFFF80
ENDCHAR
STARTCHAR degree
ENCODING 176
SWIDTH 405 0
DWIDTH 11 0
BBX 9 9 3 12
BITMAP
02FE00
1FEF80
3E0BC0
BD0BC0
FC0BC0
F81F80
BC7F00
7FF800
065000
ENDCHAR
STARTCHAR plusminus
ENCODING 177
SWIDTH 617 0
DWIDTH 17 0
BBX 14 18 2 0
BITMAP
000A0000
001E0000
001E0000
001E0000
001E0000
001E0000
BFFFFFE0
6AAFAA80
001E0000
001E0000
001E0000
001E0000
001E0000
000D0000
00000000
00000000
6AAAAA90
FFFFFFD0
ENDCHAR
STARTCHAR twosuperior
ENCODING 178
SWIDTH 458 0
DWIDTH 13 0
BBX 12 14 2 7
BITMAP
006FE0
01FAF8
03E07C
07D07D
07D0BC
03E1F8
0047F4
001FD0
00BF40
02F800
0FD000
3E0090
BFFFD0
BABF80
ENDCHAR
STARTCHAR threesuperior
ENCODING 179
SWIDTH 430 0
DWIDTH 12 0
BBX 12 15 2 6
BITMAP
002FE0
00FAF8
02E0BC
03D0BD
03E0FC
0142F4
002FE0
00FF40
00AF80
140FC0
BC0FC0
B81F80
B87E00
2FF400
014000
ENDCHAR
STARTCHAR acute
ENCODING 180
SWIDTH 322 0
DWIDTH 9 0
BBX 7 7 2 15
BITMAP
0050
00F8
01F8
03F4
0BD0
2F40
7800
ENDCHAR
STARTCHAR mu
ENCODING 181
SWIDTH 618 0
DWIDTH 17 0
BBX 18 22 -1 -8
BITMAP
00038003D0
000BD00BD0
001F801FC0
003F403F40
007E007F00
00FD00FE00
01F802FC00
02F407F800
03F00FF400
0BE02EF000
0FE0B6F000
1FFAD2FA40
2FFF42FF40
2EB900BD00
3D00000000
7D00000000
7C00000000
BC00000000
BC00000000
F800000000
F800000000
7400000000
ENDCHAR
STARTCHAR paragraph
ENCODING 182
SWIDTH 739 0
DWIDTH 21 0
BBX 23 24 1 -2
BITMAP
000001AFFFF8
00006FFFFFE0
0002FFFD1F40
000BFFF42F40
002FFFF03F00
007FFFE07E00
00BFFFD0BD00
00BFFFC0BD00
00BFFF80FC00
007FFF81F800
002FFF42F400
0007FF02F000
0000BE03E000
0000BE07D000
0000FD0BC000
0001FC0F8000
0002F81F4000
0503F02E0000
2F47E03D0000
BE0BC07C0000
FC1F80B80000
F83E01F00000
BEF802D00000
2F9003400000
ENDCHAR
STARTCHAR periodcentered
ENCODING 183
SWIDTH 353 0
DWIDTH 10 0
BBX 5 4 3 7
BITMAP
2E40
BF80
BF80
3F00
ENDCHAR
STARTCHAR cedilla
ENCODING 184
SWIDTH 301 0
DWIDTH 8 0
BBX 5 7 2 -6
BITMAP
1D00
0B00
0B40
0B80
2F40
FF00
7900
ENDCHAR
STARTCHAR onesuperior
ENCODING 185
SWIDTH 403 0
DWIDTH 11 0
BBX 9 15 3 6
BITMAP
002E00
00BF40
02FF00
2FFF00
7E7E00
00BD00
00F800
01F400
03F000
07D000
0BC000
1F4000
2E0000
780000
100000
ENDCHAR
STARTCHAR ordmasculine
ENCODING 186
SWIDTH 498 0
DWIDTH 14 0
BBX 11 13 3 8
BITMAP
001640
01BFE0
07F5F8
0FC0BC
2F40BC
7E00FC
BD01F8
FC02F4
FC03F0
F80BD0
BC1F80
7EBE00
1BE400
ENDCHAR
STARTCHAR guillemotright
ENCODING 187
SWIDTH 665 0
DWIDTH 19 0
BBX 16 11 1 3
BITMAP
0B802E00
0BE02F80
02F80BD0
00BD02F4
003F40FD
001FC07F
007F41FD
02F80BE0
0BD03F40
3E00F800
64019000
ENDCHAR
STARTCHAR onequarter
ENCODING 188
SWIDTH 988 0
DWIDTH 28 0
BBX 23 23 3 0
BITMAP
000000014000
00000007C000
007D000F8000
01FE002F0000
0BFE007D0000
6FFD00B80000
F9FC01F40000
01F803E00000
02F40BC19000
03E00F42F000
07D02F03F000
0FC07D07E000
1F40F80BD1D0
3E01F41FC2F0
7C03E02F43F0
F40BC07E07E0
500F40BD0BD0
002F007FFFF0
007D001ABFF4
00F800003E00
01F000007C00
03E00000F400
07800001D000
ENDCHAR
STARTCHAR onehalf
ENCODING 189
SWIDTH 988 0
DWIDTH 28 0
BBX 23 22 3 0
BITMAP
00000002C000
0079000BC000
01FE001F4000
07FE003E0000
2FFD00BC0000
FEFC01F40000
50F802F00000
02F407D00000
03F00F806F90
07D02F02FAF4
0BC03D07D0B8
1F40BC0BC0BC
2F01F40BD0F8
7D03E007D2F4
B407C0000BF0
900F80002FC0
002F0000FE00
007D0007F400
00B8001F8000
01F0007E05C0
03E000FFFF80
078000BFFE40
ENDCHAR
STARTCHAR threequarters
ENCODING 190
SWIDTH 1007 0
DWIDTH 28 0
BBX 25 23 1 0
BITMAP
00000000014000
000000000F4000
002FE0002F0000
00FAF8007D0000
02E0BC00F80000
03D0BC01F40000
03E0FC03E00000
0142F40BC00000
002FD01F424000
00FF402F07C000
00AF807D0BC000
140FC0F80F8000
BC0FC1F01F4780
F81F83E02F0BC0
B87E0BC07D0F80
2FF41F40F81F40
01402E01F42F00
00007D00FFFF80
0000F8002ABD40
0001F00000F400
0003D00001E000
000BC00003C000
000E0000060000
ENDCHAR
STARTCHAR questiondown
ENCODING 191
SWIDTH 516 0
DWIDTH 14 0
BBX 13 21 0 -5
BITMAP
00001F40
00007FC0
00007FC0
00002F40
00000000
00002400
00007800
0000F800
0003F400
001FE000
007F8000
02FE0000
0BF80000
2FD00000
7F42D000
BD0BE000
F807E000
F807E000
B80BC000
3EBF4000
0BF80000
ENDCHAR
STARTCHAR Agrave
ENCODING 192
SWIDTH 615 0
DWIDTH 17 0
BBX 20 27 -2 0
BITMAP
00000002C0
0000000BD0
0000000BE0
00000002F8
000000006D
0000000000
00000000AF
00000007FF
0000002E7E
000000B87D
000002E0FC
00000B81F8
00001F02F4
00007D03F0
0000B807E0
0001F00FD0
0003FBFFFD
006FFFFFFC
00FF957F90
002E003F00
007C007E00
00F8007D00
02F000BD00
07E000BD00
1F8000BD60
BF0000BFE0
B800002F80
ENDCHAR
STARTCHAR Aacute
ENCODING 193
SWIDTH 615 0
DWIDTH 17 0
BBX 22 27 -2 0
BITMAP
0000000002D0
0000000007E0
000000000BD0
000000002F40
000000007900
000000000000
00000000AF00
00000007FF00
0000002E7E00
000000B87D00
000002E0FC00
00000B81F800
00001F02F400
00007D03F000
0000B807E000
0001F00FD000
0003FBFFFD00
006FFFFFFC00
00FF957F9000
002E003F0000
007C007E0000
00F8007D0000
02F000BD0000
07E000BD0000
1F8000BD6000
BF0000BFE000
B800002F8000
ENDCHAR
STARTCHAR Acircumflex
ENCODING 194
SWIDTH 615 0
DWIDTH 17 0
BBX 22 27 -2 0
BITMAP
000000000A00
000000003F40
00000001FF80
0000001BDBD0
0000002E02E0
000000000000
00000000AF00
00000007FF00
0000002E7E00
000000B87D00
000002E0FC00
00000B81F800
00001F02F400
00007D03F000
0000B807E000
0001F00FD000
0003FBFFFD00
006FFFFFFC00
00FF957F9000
002E003F0000
007C007E0000
00F8007D0000
02F000BD0000
07E000BD0000
1F8000BD6000
BF0000BFE000
B800002F8000
ENDCHAR
STARTCHAR Atilde
ENCODING 195
SWIDTH 615 0
DWIDTH 17 0
BBX 23 27 -2 0
BITMAP
00000006E00C
0000001FFD2C
0000003FFFF4
000000746F90
000000000000
000000000000
00000000AF00
00000007FF00
0000002E7E00
000000B87D00
000002E0FC00
00000B81F800
00001F02F400
00007D03F000
0000B807E000
0001F00FD000
0003FBFFFD00
006FFFFFFC00
00FF957F9000
002E003F0000
007C007E0000
00F8007D0000
02F000BD0000
07E000BD0000
1F8000BD6000
BF0000BFE000
B800002F8000
ENDCHAR
STARTCHAR Adieresis
ENCODING 196
SWIDTH 615 0
DWIDTH 17 0
BBX 23 27 -2 0
BITMAP
000000050050
0000003F82FC
0000007F83FC
0000003F42F8
000000150050
000000000000
00000000AF00
00000007FF00
0000002E7E00
000000B87D00
000002E0FC00
00000B81F800
00001F02F400
00003D03F000
0000B807E000
0001F00FD000
0003FBFFFD00
002FFFFFFC00
00FF957F9000
002E003F0000
007C007E0000
00F8007D0000
02F000BD0000
07E000BD0000
1F8000BE6000
BF0000BFE000
B800002F8000
ENDCHAR
STARTCHAR Aring
ENCODING 197
SWIDTH 615 0
DWIDTH 17 0
BBX 22 27 -2 0
BITMAP
000000006F80
00000002FBD0
00000007D2E0
0000000B82E0
0000000B83E0
0000000B8BC0
00000003FF40
0000000BFF00
0000002FFE00
000000FD7D00
000003F0BC00
00000BC0F800
00002F42F400
00007D03F000
0000F807E000
0002F00BD000
0007FBFFFD00
007FFFFFF800
00AF403F4000
003E003F0000
00BC007E0000
00F800BD0000
02F000BD0000
07D000BD0000
1F8000BD6000
BF00007FE000
B800002F8000
ENDCHAR
STARTCHAR AE
ENCODING 198
SWIDTH 878 0
DWIDTH 25 0
BBX 29 21 -2 0
BITMAP
00000001BE6BF900
0000000BFFFFAF40
0000002F5FF40780
000000BC2FC00B80
000002F0BF001F80
000007D0FD00BF00
00001F41FC02FE00
00003E01F803F800
0000BC01F8019000
0001F400F8000000
0003FAFFFFF80000
001BFFFFFFFC0000
007FFFFFFF900000
007F0002FD000000
007D000BF4000000
00F8000FD0000000
02F4001F80024000
07E0001F800B4000
0FC0001FC07F0000
7F40000BFBFD0000
B9000001BF900000
ENDCHAR
STARTCHAR Ccedilla
ENCODING 199
SWIDTH 533 0
DWIDTH 15 0
BBX 16 27 1 -6
BITMAP
00001BE4
0001FEBD
000BE01E
002F801F
00BE002F
01FC007F
03F401FD
0BE007FC
0FD00BF0
1FC00280
2F400000
3F400000
7F000000
7E000000
BE000000
BE000000
7E000000
7F000A00
2F406E00
0FEAFD00
02FF9000
00B00000
00B40000
00F40000
02F40000
0FE00000
0B800000
ENDCHAR
STARTCHAR Egrave
ENCODING 200
SWIDTH 509 0
DWIDTH 14 0
BBX 16 27 1 0
BITMAP
00002800
0000BC00
0000BE00
00003F40
000006C0
00000000
0001BFE0
000BFAB8
007F802D
00FE003D
02F800BD
07F002F8
0BE01FF4
0BD01FD0
0BD00500
0BD00000
03FA8000
01FFE000
07FE4000
1FF40000
3F800000
BF000000
BE001800
FD007C00
BE01F800
3FAFE000
0AFE4000
ENDCHAR
STARTCHAR Eacute
ENCODING 201
SWIDTH 509 0
DWIDTH 14 0
BBX 16 27 1 0
BITMAP
0000002D
0000007E
000000FD
000002F4
00000780
00000000
0001BFE0
000BFAB8
007F802D
00FE003D
02F800BD
07F002F8
0BE01FF4
0BD01FD0
0BD00500
0BD00000
03FA8000
01FFE000
07FE4000
1FF40000
3F800000
BF000000
BE001800
FD007C00
BE01F800
3FAFE000
0AFE4000
ENDCHAR
STARTCHAR Ecircumflex
ENCODING 202
SWIDTH 509 0
DWIDTH 14 0
BBX 16 27 1 0
BITMAP
000000A0
000007F4
00001FF8
0001FDBD
0003D02E
00000000
0001BFE0
000BFAB8
007F802D
00FE003D
02F800BD
07F002F8
0BE01FF4
0BD01FD0
0BD00500
0BD00000
03FA8000
01FFE000
07FE4000
1FF40000
3F800000
BF000000
BE001800
FD007C00
BE01F800
3FAFE000
0AFE4000
ENDCHAR
STARTCHAR Edieresis
ENCODING 203
SWIDTH 509 0
DWIDTH 14 0
BBX 17 27 1 0
BITMAP
0000500500
0007F83FC0
0007F83FC0
0003F43F80
0001500500
0000000000
0001BFE000
000BFAB800
007F802D00
00FE003D00
02F800BD00
07F002F800
0BE01FF400
0BD01FD000
0BD0050000
0BD0000000
03FA800000
01FFE00000
07FE400000
1FF4000000
3F80000000
BF00000000
BE00180000
FD007C0000
BE01F80000
3FAFE00000
0AFE400000
ENDCHAR
STARTCHAR Igrave
ENCODING 204
SWIDTH 327 0
DWIDTH 9 0
BBX 11 27 0 0
BITMAP
000B00
001F40
001F80
000BE0
0001B4
000000
01BF80
03FBE0
0047E0
0007E0
000BD0
000FD0
000FC0
001F80
002F80
003F40
007F00
00BE00
00FD00
01F800
02F400
07F000
0BD000
1F8000
3F0000
FD0000
E40000
ENDCHAR
STARTCHAR Iacute
ENCODING 205
SWIDTH 327 0
DWIDTH 9 0
BBX 13 27 0 0
BITMAP
00000B40
00000FC0
00002F80
0000BE00
0001E400
00000000
01BF8000
03FBE000
0047E000
0007E000
000BD000
000FD000
000FC000
001F8000
002F8000
003F4000
007F0000
00BE0000
00FD0000
01F80000
02F40000
07F00000
0BD00000
1F800000
3F000000
FD000000
E4000000
ENDCHAR
STARTCHAR Icircumflex
ENCODING 206
SWIDTH 327 0
DWIDTH 9 0
BBX 13 27 0 0
BITMAP
00002800
0000BD00
0007FF00
006F5F80
00B80BC0
00000000
01BF8000
03FBE000
0047E000
0007E000
000BD000
000FD000
000FC000
001F8000
002F8000
003F4000
007F0000
00BE0000
00FD0000
01F80000
02F40000
07F00000
0BD00000
1F800000
3F000000
FD000000
E4000000
ENDCHAR
STARTCHAR Idieresis
ENCODING 207
SWIDTH 327 0
DWIDTH 9 0
BBX 14 27 0 0
BITMAP
00140150
00FE0BF0
01FF0FF0
00FD0BE0
00140140
00000000
01BF8000
03FBE000
0047E000
0007E000
000BD000
000FD000
000FC000
001F8000
002F8000
003F4000
007F0000
00BE0000
00FD0000
01F80000
02F40000
07F00000
0BD00000
1F800000
3F000000
FD000000
E4000000
ENDCHAR
STARTCHAR Eth
ENCODING 208
SWIDTH 630 0
DWIDTH 18 0
BBX 17 21 1 0
BITMAP
01AFFA4000
1FFEABF400
0FD000BD00
0100002F00
003F401F80
00BF000F80
00FD000FC0
02FC000FC0
7FFFF41F80
FFFFF02F80
5FE5403F40
1FC0007F00
2F8000FD00
3F4002F800
3F0007F400
7E001FD000
BD007F4000
BD01FD0000
FC1BF40000
7EBF800000
1BE4000000
ENDCHAR
STARTCHAR Ntilde
ENCODING 209
SWIDTH 708 0
DWIDTH 20 0
BBX 23 27 0 0
BITMAP
0000001BD024
0000007FF4B4
000000FFFFD0
000001D0BF40
000000000000
000000000000
00002E001F40
0001FF002FD0
0003FE000FE0
000BFE000BE0
001F7E000BE0
003D7E000BD0
007C7E000FC0
00F47E001F40
01F07E002F00
02E07E003E00
07D07F007C00
0BC03F00F400
0F803F41F000
1F402F83D000
2F001F878000
3E000FCB4000
3E000FEE0000
7D0007FD0000
7C0003FC0000
7C0001F80000
280000740000
ENDCHAR
STARTCHAR Ograve
ENCODING 210
SWIDTH 655 0
DWIDTH 18 0
BBX 18 27 1 0
BITMAP
000001D000
000003E000
000003F400
000001FC00
0000006E00
0000000000
00001BF900
0001FEAF40
0007F40BC0
002FC007D0
007F4003E0
00FD0003E0
02F80007E0
07F40007E0
0BE0000BE0
1FD0000FD0
2F80001FC0
2F40002F80
3F00007F40
7F0000BE00
7E0001FD00
7E0003F400
7E000BE000
3E002F8000
2F40BE0000
0BEBF40000
01BE800000
ENDCHAR
STARTCHAR Oacute
ENCODING 211
SWIDTH 655 0
DWIDTH 18 0
BBX 19 27 1 0
BITMAP
00000001E0
00000002F4
00000007F0
0000001F80
0000003D00
0000000000
00001BF900
0001FEAF40
0007F40BC0
002FC007D0
007F4003E0
00FD0003E0
02F80007E0
07F40007E0
0BE0000BE0
1FD0000FD0
2F80001FC0
2F40002F80
3F00007F40
7F0000BE00
7E0001FD00
7E0003F400
7E000BE000
3E002F8000
2F40BE0000
0BEBF40000
01BE800000
ENDCHAR
STARTCHAR Ocircumflex
ENCODING 212
SWIDTH 655 0
DWIDTH 18 0
BBX 19 27 1 0
BITMAP
0000000640
0000002F80
000001BFD0
00001BE7F0
00001E41F4
0000000000
00001BF900
0001FEAF40
0007F40BC0
002FC007D0
007F4003E0
00FD0003E0
02F80007E0
07F40007E0
0BE0000BE0
1FD0000FD0
2F80001FC0
2F40002F80
3F00007F40
7F0000BE00
7E0001FD00
7E0003F400
7E000BE000
3E002F8000
2F40BE0000
0BEBF40000
01BE800000
ENDCHAR
STARTCHAR Otilde
ENCODING 213
SWIDTH 655 0
DWIDTH 18 0
BBX 20 27 1 0
BITMAP
000002F40A
00000FFE1D
00002FFFF8
0000382FE0
0000000000
0000000000
00001BF900
0001FEAF40
0007F40BC0
002FC007D0
007F4003E0
00FD0003E0
02F80007E0
07F40007E0
0BE0000BE0
1FD0000FD0
2F80001FC0
2F40002F80
3F00007F40
7F0000BE00
7E0001FD00
7E0003F400
7E000BE000
3E002F8000
2F40BE0000
0BEBF40000
01BE800000
ENDCHAR
STARTCHAR Odieresis
ENCODING 214
SWIDTH 655 0
DWIDTH 18 0
BBX 20 27 1 0
BITMAP
0000054054
00002FC1FD
00003FD2FD
00002F81FC
0000050050
0000000000
00001BF900
0001FEAF40
0007F40BC0
002FC007D0
007F4003E0
00FD0003E0
02F80007E0
07F40007E0
0BE0000BE0
1FD0000FD0
2F80001FC0
2F40002F80
3F00007F40
7F0000BE00
7E0001FD00
7E0003F400
7E000BE000
3E002F8000
2F40BE0000
0BEBF40000
01BE800000
ENDCHAR
STARTCHAR multiply
ENCODING 215
SWIDTH 573 0
DWIDTH 16 0
BBX 12 11 3 4
BITMAP
F0002D
BC00BC
2F02F0
0BCBC0
02FF00
00FD00
02FE00
0BDB80
2F03E0
BC00F8
E0002C
ENDCHAR
STARTCHAR Oslash
ENCODING 216
SWIDTH 655 0
DWIDTH 18 0
BBX 19 26 2 -2
BITMAP
0000000050
00000003F4
0000000BD0
00001BFF40
0001FEBF40
000BF4BFC0
002FC0F7D0
007F02D7E0
01FD0787E0
03F80F07E0
07F01D0BE0
0FE0380BD0
1FC0B00FC0
2F81E01FC0
3F42C03F40
3F07407F00
7E0E00FE00
7E2D01FC00
7D3803F400
7DB00BE000
3FE02F8000
2FC0BE0000
0FEBF40000
2FFE400000
3D00000000
7400000000
ENDCHAR
STARTCHAR Ugrave
ENCODING 217
SWIDTH 624 0
DWIDTH 17 0
BBX 20 27 0 0
BITMAP
0000068000
00000BC000
00000BE000
000003F400
0000006C00
0000000000
001F800078
002FD000BD
000FD001FC
000FC002F4
001F8007F0
002F400BE0
007F001FD0
00BD003FC0
00FC007F80
02F800FF40
03F001FF00
07E003FE00
0FD00BFD00
1F801EFC00
2F402DF800
3F00B5F400
7E01E2F400
7E0782F000
7F5E02F580
3FF801FF80
1F9000BE00
ENDCHAR
STARTCHAR Uacute
ENCODING 218
SWIDTH 624 0
DWIDTH 17 0
BBX 20 27 0 0
BITMAP
00000003D0
00000007E0
0000000FD0
0000002F40
000000B800
0000000000
001F800078
002FD000BD
000FD001FC
000FC002F4
001F8007F0
002F400BE0
007F001FD0
00BD003FC0
00FC007F80
02F800FF40
03F001FF00
07E003FE00
0FD00BFD00
1F801EFC00
2F402DF800
3F00B5F400
7E01E2F400
7E0782F000
7F5E02F580
3FF801FF80
1F9000BE00
ENDCHAR
STARTCHAR Ucircumflex
ENCODING 219
SWIDTH 624 0
DWIDTH 17 0
BBX 20 27 0 0
BITMAP
0000000A00
0000007F40
000002FF80
00001FDBD0
00003D02E0
0000000000
001F800078
002FD000BD
000FD001FC
000FC002F4
001F8007F0
002F400BE0
007F001FD0
00BD003FC0
00FC007F80
02F800FF40
03F001FF00
07E003FE00
0FD00BFD00
1F801EFC00
2F402DF800
3F00B5F400
7E01E2F400
7E0782F000
7F5E02F580
3FF801FF80
1F9000BE00
ENDCHAR
STARTCHAR Udieresis
ENCODING 220
SWIDTH 624 0
DWIDTH 17 0
BBX 20 27 0 0
BITMAP
0000150050
00007F83F8
00007F87FC
00007F43F4
0000150050
0000000000
001F800078
002FD000BD
000FD001FC
000FC002F4
001F8007F0
002F400BE0
007F001FD0
00BD003FC0
00FC007F80
02F800FF40
03F001FF00
07E003FE00
0FD00BFD00
1F801EFC00
2F402DF800
3F00B5F400
7E01E2F400
7E0782F000
7F5E02F580
3FF801FF80
1F9000BE00
ENDCHAR
STARTCHAR Yacute
ENCODING 221
SWIDTH 580 0
DWIDTH 16 0
BBX 20 35 0 -8
BITMAP
0000000140
00000007D0
0000000BD0
0000002F80
0000007D00
0000005000
001F800078
002FD000BD
000FD001F8
000FC003F4
001F8007F0
003F400FE0
007F001FC0
00BD003F80
01FC007F40
02F400FF00
03F002FE00
0BE003FD00
0FC00BFC00
1F801FF800
2F403EF400
3F00B6F000
7E01E7E000
7E078BC000
7E5E1F8000
7FF82F4000
1F907E0000
0000BC0000
0001F80000
0003E00000
000BC00000
002F400000
00BD000000
0BF4000000
1F80000000
ENDCHAR
STARTCHAR Thorn
ENCODING 222
SWIDTH 527 0
DWIDTH 15 0
BBX 16 21 -1 0
BITMAP
01BF8000
03FBE000
0047E000
000BE000
000BD000
000FE500
000FFFE4
001F80BD
002F403F
003F003F
007E003F
00BD00BE
00FC02FD
01F81FF4
02FFFF90
07FFE900
0BD00000
1F800000
3F000000
FD000000
E4000000
ENDCHAR
STARTCHAR germandbls
ENCODING 223
SWIDTH 520 0
DWIDTH 15 0
BBX 17 27 -2 -4
BITMAP
000006F900
00002FAF40
0000BD0B80
0001F807C0
0002F00BC0
0007E00FC0
000BD01F80
000FC07F00
001F80FD00
002F42F400
003F07D000
003E0F8000
007E1F4000
00BD1F4000
00FC1FC000
00F80FE000
01F807F400
02F402FC00
03F040BD00
07E2D07D00
0BD3F07D00
0FC2FEF400
0F807F9000
2F40000000
3F00000000
7E00000000
1400000000
ENDCHAR
STARTCHAR agrave
ENCODING 224
SWIDTH 541 0
DWIDTH 15 0
BBX 14 23 1 -1
BITMAP
0001F000
0003F000
0003F000
0003F000
0001F000
0000B400
00002800
00000000
001BE2E0
00BEBFF0
02F41FE0
0BD01FC0
1F802F80
3F403F00
7E007E00
BD00FD00
FD01FC00
FC03F800
FC0BF800
BC1DF840
7EB4FFC0
1F90BF40
00001500
ENDCHAR
STARTCHAR aacute
ENCODING 225
SWIDTH 541 0
DWIDTH 15 0
BBX 14 23 1 -1
BITMAP
00000F40
00001F80
00002F40
00007E00
0000F800
0003E000
00010000
00000000
001BE2E0
00BEBFF0
02F41FE0
0BD01FC0
1F802F80
3F403F00
7E007E00
BD00FD00
FD01FC00
FC03F800
FC0BF800
BC1DF840
7EB4FFC0
1F90BF40
00001500
ENDCHAR
STARTCHAR acircumflex
ENCODING 226
SWIDTH 541 0
DWIDTH 15 0
BBX 14 23 1 -1
BITMAP
00000100
00000F80
00007F80
0001FBC0
001BD7D0
00BE02F0
00140050
00000000
001BE2E0
00BEBFF0
02F41FE0
0BD01FC0
1F802F80
3F403F00
7E007E00
BD00FD00
FD01FC00
FC03F800
FC0BF800
BC1DF840
7EB4FFC0
1F90BF40
00001500
ENDCHAR
STARTCHAR atilde
ENCODING 227
SWIDTH 541 0
DWIDTH 15 0
BBX 15 22 1 -1
BITMAP
0006E00C
001FFD2C
007FFFF4
00746F90
00000000
00000000
00000000
001BE2E0
00BEBFF0
02F41FE0
0BD01FC0
1F802F80
3F403F00
7E007E00
BD00FD00
FD01FC00
FC03F800
FC0BF800
BC1DF840
7EB4FFC0
1F90BF40
00001500
ENDCHAR
STARTCHAR adieresis
ENCODING 228
SWIDTH 541 0
DWIDTH 15 0
BBX 15 22 1 -1
BITMAP
002F41F4
007F83FC
007F83F8
002E01F4
00000000
00000000
00000000
001BE2E0
00BEBFF0
02F41FE0
0BD01FC0
1F802F80
3F403F00
7E007E00
BD00FD00
FD01FC00
FC03F800
FC0BF800
BC1DF840
7EB4FFC0
1F90BF40
00001500
ENDCHAR
STARTCHAR aring
ENCODING 229
SWIDTH 541 0
DWIDTH 15 0
BBX 14 23 1 -1
BITMAP
0000BF40
0003EBD0
000B82E0
000F43D0
000F8BC0
0007FF40
00016400
00000000
001BE2E0
00BEBFF0
02F41FE0
0BD01FC0
1F802F80
3F403F00
7E007E00
BD00FD00
FD01FC00
FC03F800
FC0BF800
BC1DF840
7EB4FFC0
1F90BF40
00001500
ENDCHAR
STARTCHAR ae
ENCODING 230
SWIDTH 769 0
DWIDTH 22 0
BBX 20 14 1 0
BITMAP
001BE2EBF8
00BEBFFEBE
02F41FF43F
0BD01FD03F
1F802F80BF
3F003F41FD
7E007F07F8
BD00FEBFD0
FC01FFF900
FC03FE0000
FC0BBE0014
BC1D7F00B4
7EB42FEBE0
1F9006FE40
ENDCHAR
STARTCHAR ccedilla
ENCODING 231
SWIDTH 465 0
DWIDTH 13 0
BBX 12 20 1 -6
BITMAP
001BF4
00BEBD
03F42E
0FD03E
2F80BE
3F01FC
BE01F4
FD0000
FC0000
FC0000
FC0050
BD01E0
3FAF80
0BF900
02C000
01E000
02E000
0BD000
3FC000
1E4000
ENDCHAR
STARTCHAR egrave
ENCODING 232
SWIDTH 471 0
DWIDTH 13 0
BBX 12 22 1 0
BITMAP
0007C0
000FC0
000FC0
000FC0
0007C0
0002D0
000090
000000
001BF4
00BEBD
02F43E
0BD03E
1FC07E
2F41FD
7F07F8
BE6FD0
BFF900
FD0000
BD0010
7E01B0
2FABE0
0BFE40
ENDCHAR
STARTCHAR eacute
ENCODING 233
SWIDTH 471 0
DWIDTH 13 0
BBX 12 22 1 0
BITMAP
00003D
00007E
0000BD
0001F8
0007E0
001F80
001400
000000
001BF4
00BEBD
02F43E
0BD03E
1FC07E
2F41FD
7F07F8
BE6FD0
BFF900
FD0000
BD0010
7E01B0
2FABE0
0BFE40
ENDCHAR
STARTCHAR ecircumflex
ENCODING 234
SWIDTH 471 0
DWIDTH 13 0
BBX 13 22 1 0
BITMAP
00000400
00003D00
0001FE00
0007FF00
006F5F40
02F80F80
00500140
00000000
001BF400
00BEBD00
02F43E00
0BD03E00
1FC07E00
2F41FD00
7F07F800
BE6FD000
BFF90000
FD000000
BD001000
7E01B000
2FABE000
0BFE4000
ENDCHAR
STARTCHAR edieresis
ENCODING 235
SWIDTH 471 0
DWIDTH 13 0
BBX 14 21 1 0
BITMAP
00BD07D0
01FE0FF0
01FD0FE0
00B80B80
00000000
00000000
00000000
001BF400
00BEBD00
02F43E00
0BD03E00
1F80BD00
2F02F800
7E6FD000
BFE90000
BD000000
FD000000
BD007000
7E01F000
2FAFD000
0BFA0000
ENDCHAR
STARTCHAR igrave
ENCODING 236
SWIDTH 286 0
DWIDTH 8 0
BBX 8 22 0 0
BITMAP
007C
00FC
00FC
00BC
007C
002D
000A
0000
02F8
02FC
01FC
01F8
02F0
03E0
0BD0
0F80
1F40
2F00
3E00
7FA0
3FE0
1F80
ENDCHAR
STARTCHAR iacute
ENCODING 237
SWIDTH 286 0
DWIDTH 8 0
BBX 10 22 0 0
BITMAP
0002D0
0007E0
000BE0
001FC0
003E00
00F800
004000
000000
02F800
02FC00
01FC00
01F800
02F000
03E000
0BD000
0F8000
1F4000
2F0000
3E0000
7FA000
3FE000
1F8000
ENDCHAR
STARTCHAR icircumflex
ENCODING 238
SWIDTH 286 0
DWIDTH 8 0
BBX 11 22 0 0
BITMAP
000040
0002E0
001FF0
007EF0
06F5F4
1F80BC
050014
000000
02F800
02FC00
01FC00
01F800
02F000
03E000
0BD000
0F8000
1F4000
2F0000
3E0000
7FA000
3FE000
1F8000
ENDCHAR
STARTCHAR idieresis
ENCODING 239
SWIDTH 286 0
DWIDTH 8 0
BBX 12 21 0 0
BITMAP
0BD07E
1FE0FF
1FE0FF
0B807D
000000
000000
000000
02F800
02FC00
01FC00
01F800
02F000
03E000
0BD000
0F8000
1F4000
2F0000
3E0000
7FA000
3FE000
1F8000
ENDCHAR
STARTCHAR eth
ENCODING 240
SWIDTH 524 0
DWIDTH 15 0
BBX 17 23 1 0
BITMAP
00001D0000
00000F4000
0000079500
000007FF40
00002FFA40
0001FBE000
000292E000
000002E000
000002E000
001BE7E000
00BEBFE000
02F41FD000
0BD00FC000
1F801F8000
2F402F4000
7E003F0000
BE00BE0000
FD00FC0000
FC02F40000
FC07E00000
BD0FC00000
7FBE000000
1BE4000000
ENDCHAR
STARTCHAR ntilde
ENCODING 241
SWIDTH 561 0
DWIDTH 16 0
BBX 16 21 0 0
BITMAP
0001B803
0007FF4B
001FFFFD
001D1BE4
00000000
00000000
00000000
02F407E0
02FC2FF4
01F8BFF8
01FAE1F4
02F782F4
03EE07E0
07FC0BD0
0BF41FC0
0FD02F40
2F803F00
3F007E00
BE007E50
FC003FF0
78001F80
ENDCHAR
STARTCHAR ograve
ENCODING 242
SWIDTH 514 0
DWIDTH 14 0
BBX 13 22 1 0
BITMAP
0001B400
0002F400
0002F400
0002F400
0000F400
00007800
00001800
00000000
001BE400
00BEBD00
03F42F00
0BE02F40
1FC02F40
3F403F40
7F003F00
BE007E00
FD00FD00
FC01FC00
FC03F400
BC0FD000
3EBF4000
1BF80000
ENDCHAR
STARTCHAR oacute
ENCODING 243
SWIDTH 514 0
DWIDTH 14 0
BBX 13 22 1 0
BITMAP
00000B40
00000FC0
00001F80
00003F00
0000BD00
0002E000
00014000
00000000
001BE400
00BEBD00
03F42F00
0BE02F40
1FC02F40
3F403F40
7F003F00
BE007E00
FD00FD00
FC01FC00
FC03F400
BC0FD000
3EBF4000
1BF80000
ENDCHAR
STARTCHAR ocircumflex
ENCODING 244
SWIDTH 514 0
DWIDTH 14 0
BBX 14 22 1 0
BITMAP
00000100
00000B80
00002FC0
0001FBD0
000BE3E0
007F42F0
00140050
00000000
001BE400
00BEBD00
03F42F00
0BE02F40
1FC02F40
3F403F40
7F003F00
BE007E00
FD00FD00
FC01FC00
FC03F400
BC0FD000
3EBF4000
1BF80000
ENDCHAR
STARTCHAR otilde
ENCODING 245
SWIDTH 514 0
DWIDTH 14 0
BBX 16 21 1 0
BITMAP
0006F409
001FFD2D
003FFFF8
00742FD0
00000000
00000000
00000000
001BE400
00BEBD00
03F42F00
0BE02F40
1FC02F40
3F403F40
7F003F00
BE007E00
FD00FD00
FC01FC00
FC03F400
BC0FD000
3EBF4000
1BF80000
ENDCHAR
STARTCHAR odieresis
ENCODING 246
SWIDTH 514 0
DWIDTH 14 0
BBX 16 21 1 0
BITMAP
001F41F8
003FC2FD
003F82FC
001E01F4
00000000
00000000
00000000
001BE400
00BEBD00
03F42F00
0BE02F40
1FC02F40
3F403F40
7F003F00
BE007E00
FD00FD00
FC01FC00
FC03F400
BC0FD000
3EBF4000
1BF80000
ENDCHAR
STARTCHAR divide
ENCODING 247
SWIDTH 617 0
DWIDTH 17 0
BBX 14 14 2 3
BITMAP
00050000
001FC000
002FC000
001F4000
00000000
00000000
2AAAAA90
BFFFFFE0
00000000
00000000
00050000
002F8000
003F8000
001F4000
ENDCHAR
STARTCHAR oslash
ENCODING 248
SWIDTH 514 0
DWIDTH 14 0
BBX 14 19 1 -3
BITMAP
000006E0
00000FD0
001BFF40
00BEBE00
02F4BF00
0BE1EF40
1F836F40
3F462F40
7E0D3F40
BD287F00
FC70BD00
FCD1FC00
FDC3F400
BF4BD000
3FBF4000
3FF80000
7C000000
B4000000
10000000
ENDCHAR
STARTCHAR ugrave
ENCODING 249
SWIDTH 553 0
DWIDTH 15 0
BBX 15 22 0 0
BITMAP
00001E00
00007F00
00007E00
00003E00
00002F00
00000B40
00000240
00000000
01F80078
02FC00FC
00FC02F8
01F803F4
02F40BE0
03F01FD0
0BE03F80
0FC0BF40
2F81EF00
3F07AE00
7E1E3E00
7FBC3F60
3FF03FE0
1F801F80
ENDCHAR
STARTCHAR uacute
ENCODING 250
SWIDTH 553 0
DWIDTH 15 0
BBX 15 22 0 0
BITMAP
000000F0
000001F4
000003F4
000007E0
00001F80
00007D00
00005000
00000000
01F80078
02FC00FC
00FC01F8
01F803F4
02F40BE0
03F01FD0
0BE02FC0
0FD07F40
2F81EF00
3F43AE00
7F0B3E00
7E7C3E50
3FF43FF0
1F801F80
ENDCHAR
STARTCHAR ucircumflex
ENCODING 251
SWIDTH 553 0
DWIDTH 15 0
BBX 16 22 0 0
BITMAP
00000010
000001F4
000007F8
00002FFC
0001BD7D
000BE03E
00054005
00000000
01F80078
02FC00FC
00FC01F8
01F803F4
02F40BE0
03F01FD0
0BE02FC0
0FD07F40
2F81EF00
3F43AE00
7F0B3E00
7E7C3E50
3FF43FF0
1F801F80
ENDCHAR
STARTCHAR udieresis
ENCODING 252
SWIDTH 553 0
DWIDTH 15 0
BBX 17 21 0 0
BITMAP
0002E02F40
000BF87FC0
0007F47F80
0002E02E00
0000000000
0000000000
0000000000
01F8007800
02FC00FC00
00FC01F800
01F803F400
02F40BE000
03F01FD000
0BE02FC000
0FD07F4000
2F81EF0000
3F43AE0000
7F0B3E0000
7E7C3E5000
3FF43FF000
1F801F8000
ENDCHAR
STARTCHAR yacute
ENCODING 253
SWIDTH 549 0
DWIDTH 15 0
BBX 15 30 1 -8
BITMAP
00000B40
00000F80
00002F80
00007F00
0000FC00
0002E000
00014000
00000000
07E001F0
07F402F4
03F007F0
07F00FE0
0BE01FD0
0FC03FC0
1F80BF80
3F41FF40
7F03FF00
BD0B7D00
FC2DBC00
FDB4F800
FFD1F400
7E42F000
0003D000
000BC000
001F4000
007E0000
00FC0000
07F00000
2FC00000
29000000
ENDCHAR
STARTCHAR thorn
ENCODING 254
SWIDTH 552 0
DWIDTH 15 0
BBX 18 31 -3 -8
BITMAP
0000050000
00001F4000
00001F4000
00002F0000
00003F0000
00003E0000
00007D0000
0000BC0000
0000F80000
0001F5BE00
0002E7AF80
0003EE0BC0
0007F80BD0
000BF00BD0
000FD00FD0
001F800FC0
002F401F80
003E003F40
007E00BE00
00BD01FC00
00FE07F400
01FFFF8000
01F6F90000
03E0000000
07D0000000
0BC0000000
0F80000000
1F40000000
3F00000000
7E00000000
3C00000000
ENDCHAR
STARTCHAR ydieresis
ENCODING 255
SWIDTH 549 0
DWIDTH 15 0
BBX 15 29 1 -8
BITMAP
002F41F8
007FC3FC
007F83FC
002E01F4
00000000
00000000
00000000
07E001F0
07F402F4
03F007F0
07F00FE0
0BE01FD0
0FC03FC0
1F80BF80
3F41FF40
7F03FF00
BD0B7D00
FC2DBC00
FDB4F800
FFD1F400
7E42F000
0003D000
000BC000
001F4000
007E0000
00FC0000
07F00000
2FC00000
29000000
ENDCHAR
STARTCHAR Amacron
ENCODING 256
SWIDTH 615 0
DWIDTH 17 0
BBX 23 25 -2 0
BITMAP
0000002FFFF8
0000003FFFE0
000000000000
000000000000
00000000AF00
00000007FF00
0000002E7E00
000000B87D00
000002E0FC00
00000B81F800
00001F02F400
00007D03F000
0000B807E000
0001F00FD000
0003FBFFFD00
006FFFFFFC00
00FF957F9000
002E003F0000
007C007E0000
00F8007D0000
02F000BD0000
07E000BD0000
1F8000BD6000
BF0000BFE000
B800002F8000
ENDCHAR
STARTCHAR amacron
ENCODING 257
SWIDTH 543 0
DWIDTH 15 0
BBX 15 19 1 -1
BITMAP
002FFFF4
007FFFE0
00000000
00000000
001BE2E0
00BEBFF0
02F41FE0
0BD01FC0
1F802F80
3F403F40
7E007E00
BD00BD00
FD01FC00
FC03F800
FC0BF800
BC1DF840
7EB4FFC0
1F90BF80
00001500
ENDCHAR
STARTCHAR Abreve
ENCODING 258
SWIDTH 615 0
DWIDTH 17 0
BBX 23 27 -2 0
BITMAP
000000078028
0000000BD1B4
0000000BFFE0
00000002FE40
000000000000
000000000000
00000000AF00
00000007FF00
0000002E7E00
000000B87D00
000002E0FC00
00000B81F800
00001F02F400
00003D03F000
0000B807E000
0001F00FD000
0003FBFFFD00
002FFFFFFC00
00FF957F9000
002E003F0000
007C007E0000
00F8007D0000
02F000BD0000
07E000BD0000
1F8000BE6000
BF0000BFE000
B800002F8000
ENDCHAR
STARTCHAR abreve
ENCODING 259
SWIDTH 543 0
DWIDTH 15 0
BBX 15 22 1 -1
BITMAP
00074024
000F8074
000FD1F0
000BFFD0
0002FE00
00000000
00000000
001BE2E0
00BEBFF0
02F41FE0
0BD01FC0
1F802F80
3F403F40
7E007E00
BD00BD00
FD01FC00
FC03F800
FC0BF800
BC1DF840
7EB4FFC0
1F90BF80
00001500
ENDCHAR
STARTCHAR Aogonek
ENCODING 260
SWIDTH 615 0
DWIDTH 17 0
BBX 20 28 -2 -7
BITMAP
00000000AF
00000007FF
0000002E7E
000000B87D
000002E0FC
00000B81F8
00001F02F4
00007D03F0
0000B807E0
0001F00FD0
0003FBFFFD
006FFFFFFC
00FF957F90
002E003F00
007C007E00
00F800BD00
02F000BD00
07E000BD00
1F8000BE60
BF0000BFE0
B800002F80
0000003D00
000000F400
000002E000
000007D000
00000BE500
00000BFD00
000003E400
ENDCHAR
STARTCHAR aogonek
ENCODING 261
SWIDTH 541 0
DWIDTH 15 0
BBX 14 21 1 -7
BITMAP
001BE2E0
00BEBFF0
02F41FE0
0BD01FC0
1F802F80
3F403F00
7E007E00
BD00FD00
FD01FC00
FC03F800
FC0BF800
BC1DF840
7EB4FFC0
1F907F40
00007D00
0001F400
0003D000
0007C000
000BD400
000BFC00
0007E000
ENDCHAR
STARTCHAR Cacute
ENCODING 262
SWIDTH 533 0
DWIDTH 15 0
BBX 18 27 1 0
BITMAP
00000002D0
00000003F0
0000000BE0
0000002F80
0000007900
0000000000
00001BE400
0001FEBD00
000BE01E00
002F801F00
00BE002F00
01FC007E00
03F401FD00
0BE00BF800
0FD00BF000
2F80028000
3F40000000
7F00000000
7F00000000
BE00000000
BE00000000
BE00000000
BE00000000
7F000A0000
3F407E0000
1FEBFD0000
02FF900000
ENDCHAR
STARTCHAR cacute
ENCODING 263
SWIDTH 468 0
DWIDTH 13 0
BBX 14 22 1 0
BITMAP
000001E0
000003F0
000007F0
00000FD0
00002F40
0000B900
00005000
00000000
001BF400
00BEBD00
03F42E00
0BD03E00
2F807E00
3F41FD00
7E00F400
BD000000
FD000000
FC000000
FC005000
BD01E000
3FAF8000
0BF90000
ENDCHAR
STARTCHAR Ccircumflex
ENCODING 264
SWIDTH 533 0
DWIDTH 15 0
BBX 18 27 1 0
BITMAP
0000000A00
0000002F40
000001FFC0
00001BD7E0
00002E02F0
0000000000
00001BE400
0001FEBD00
000BE01E00
002F801F00
00BE002F00
01FC007E00
03F401FD00
0BE00BF800
0FD00BF000
2F80028000
3F40000000
7F00000000
7F00000000
BE00000000
BE00000000
BE00000000
BE00000000
7F000A0000
3F407E0000
1FEBFD0000
02FF900000
ENDCHAR
STARTCHAR ccircumflex
ENCODING 265
SWIDTH 468 0
DWIDTH 13 0
BBX 14 22 1 0
BITMAP
00000100
00000F80
00007F80
0001FBC0
001BD7D0
00BE02F0
00140050
00000000
001BF400
00BEBD00
03F42E00
0BD03E00
2F807E00
3F41FD00
7E00F400
BD000000
FD000000
FC000000
FC005000
BD01E000
3FAF8000
0BF90000
ENDCHAR
STARTCHAR Cdotaccent
ENCODING 266
SWIDTH 533 0
DWIDTH 15 0
BBX 16 27 1 0
BITMAP
00000050
000003FC
000003FC
000002F8
00000050
00000000
00001BE4
0001FEBD
000BE01E
002F801F
00BE002F
01FC007E
03F401FD
0BE00BF8
0FD00BF0
2F800280
3F400000
7F000000
7F000000
BE000000
BE000000
BE000000
BE000000
7F000A00
3F407E00
1FEBFD00
02FF9000
ENDCHAR
STARTCHAR cdotaccent
ENCODING 267
SWIDTH 468 0
DWIDTH 13 0
BBX 12 21 1 0
BITMAP
00007D
0001FF
0000FE
0000B8
000000
000000
000000
001BF4
00BEBD
03F42E
0BD03E
2F807E
3F41FD
7E00F4
BD0000
FD0000
FC0000
FC0050
BD01E0
3FAF80
0BF900
ENDCHAR
STARTCHAR Ccaron
ENCODING 268
SWIDTH 533 0
DWIDTH 15 0
BBX 19 27 1 0
BITMAP
00001B8018
00000FD0BC
000007FBF4
000002FE40
0000009000
0000000000
00001BE400
0001FEBD00
000BE01E00
002F801F00
00BE002F00
01FC007E00
03F401FD00
0BE00BF800
0FD00BF000
2F80028000
3F40000000
7F00000000
7F00000000
BE00000000
BE00000000
BE00000000
BE00000000
7F000A0000
3F407E0000
1FEBFD0000
02FF900000
ENDCHAR
STARTCHAR ccaron
ENCODING 269
SWIDTH 468 0
DWIDTH 13 0
BBX 16 21 1 0
BITMAP
0006800A
0007D02E
0003E1FC
0002FBD0
0001FE00
00009000
00000000
001BF400
00BEBD00
03F42E00
0BD03E00
2F807E00
3F41FD00
7E00F400
BD000000
FD000000
FC000000
FC005000
BD01E000
3FAF8000
0BF90000
ENDCHAR
STARTCHAR Dcaron
ENCODING 270
SWIDTH 630 0
DWIDTH 18 0
BBX 18 27 1 0
BITMAP
0000690090
00007F07E0
00002FAF80
00000FF800
0000064000
0000000000
01AFFE4000
0FFEABF400
0FE000BE00
0140002F40
002F400F80
007F400FC0
00BE000FC0
01FC000FC0
02F8000FC0
07F4001F80
0BE0002F80
0FD0003F00
1FC000BE00
2F8001FC00
3F4007F400
7F000FE000
7E003F8000
BD01FE0000
BD0BF40000
7EBF800000
1BE8000000
ENDCHAR
STARTCHAR dcaron
ENCODING 271
SWIDTH 557 0
DWIDTH 16 0
BBX 22 23 1 0
BITMAP
0000000782E0
0000000FC7F0
0000001F83E0
0000003F03E0
0000007E07C0
000000BD0B40
000000FC2D00
000001F80000
000002F40000
000BE7F00000
007FBFE00000
01F80FD00000
07E00FC00000
0FC01F800000
2F402F400000
3F003F400000
7E007F000000
BD00FE000000
BD01FD000000
BD07FD000000
BD0E7D600000
7FB87FE00000
1BD01F800000
ENDCHAR
STARTCHAR Dcroat
ENCODING 272
SWIDTH 630 0
DWIDTH 18 0
BBX 17 21 1 0
BITMAP
01AFFA4000
1FFEABF400
0FD000BD00
0100002F00
003F401F80
007F000F80
00FD000FC0
02FC000FC0
7FFFF41F80
FFFFF02F80
5FF5403F40
1FC0007F00
2F8000FD00
3F4002F800
3F0007F400
7E001FD000
BD007F4000
BD01FD0000
BC1BF40000
7EBF800000
1BE4000000
ENDCHAR
STARTCHAR dcroat
ENCODING 273
SWIDTH 557 0
DWIDTH 16 0
BBX 18 23 1 0
BITMAP
0000000780
0000000FC0
0000001F80
00006FFFE0
0000FFFFD0
000000BD00
000000FC00
000001F800
000002F400
000BE7F000
007FBFE000
01F80FD000
07E00FC000
0FC01F8000
2F402F4000
3F003F4000
7E007F0000
BD00FE0000
BD01FD0000
BD07FD0000
BD0E7D6000
7FB87FE000
1BD01F8000
ENDCHAR
STARTCHAR Emacron
ENCODING 274
SWIDTH 509 0
DWIDTH 14 0
BBX 17 25 1 0
BITMAP
0002FFFF40
0007FFFE00
0000000000
0000000000
0001BFE000
000BFAB800
007F802D00
00FE003D00
02F800BD00
07F002F800
0BE01FF400
0BD01FD000
0BD0050000
0BD0000000
03FA800000
01FFE00000
07FE400000
1FF4000000
3F80000000
BF00000000
BE00180000
FD007C0000
BE01F80000
3FAFE00000
0AFE400000
ENDCHAR
STARTCHAR emacron
ENCODING 275
SWIDTH 471 0
DWIDTH 13 0
BBX 14 18 1 0
BITMAP
00FFFFD0
01FFFF40
00000000
00000000
001BF400
00BEBD00
02F43E00
0BD03E00
1FC07E00
2F41FD00
7F07F800
BE6FD000
BFF90000
FD000000
BD001000
7E01B000
2FABE000
0BFE4000
ENDCHAR
STARTCHAR Ebreve
ENCODING 276
SWIDTH 509 0
DWIDTH 14 0
BBX 17 27 1 0
BITMAP
0000740240
0000F81B40
0000BFFD00
00002FE400
0000000000
0000000000
0001BFE000
000BFAB800
007F802D00
00FE003D00
02F800BD00
07F002F800
0BE01FF400
0BD01FD000
0BD0050000
0BD0000000
03FA800000
01FFE00000
07FE400000
1FF4000000
3F80000000
BF00000000
BE00180000
FD007C0000
BE01F80000
3FAFE00000
0AFE400000
ENDCHAR
STARTCHAR ebreve
ENCODING 277
SWIDTH 471 0
DWIDTH 13 0
BBX 14 21 1 0
BITMAP
001D0090
003D01D0
003F0B80
002FFF00
000BF800
00000000
00000000
001BF400
00BEBD00
02F43E00
0BD03E00
1FC07E00
2F41FD00
7F07F800
BE6FD000
BFF90000
FD000000
BD001000
7E01B000
2FABE000
0BFE4000
ENDCHAR
STARTCHAR Edotaccent
ENCODING 278
SWIDTH 509 0
DWIDTH 14 0
BBX 16 27 1 0
BITMAP
00000500
00003F80
00007F80
00003F40
00000500
00000000
0001BFE0
000BFAB8
007F802D
00FE003D
02F800BD
07F002F8
0BE01FF4
0BD01FD0
0BD00500
0BD00000
03FA8000
01FFE000
07FE4000
1FF40000
3F800000
BF000000
BE001800
FD007C00
BE01F800
3FAFE000
0AFE4000
ENDCHAR
STARTCHAR edotaccent
ENCODING 279
SWIDTH 471 0
DWIDTH 13 0
BBX 12 21 1 0
BITMAP
0002F4
0007F8
0007F8
0002E0
000000
000000
000000
001BF4
00BEBD
02F43E
0BD03E
1FC07E
2F41FD
7F07F8
BE6FD0
BFF900
FD0000
BD0010
7E01B0
2FABE0
0BFE40
ENDCHAR
STARTCHAR Eogonek
ENCODING 280
SWIDTH 509 0
DWIDTH 14 0
BBX 16 28 1 -7
BITMAP
0001BFE0
000BFAB8
007F802D
00FE003D
02F800BD
07F002F8
0BE01FF4
0BD01FD0
0BD00500
0BD00000
03FA8000
01FFE000
07FE4000
1FF40000
3F800000
BF000000
BE001800
FD007C00
BE01FC00
3FAFF000
0AFF8000
007C0000
01F00000
07D00000
0BC00000
0FD80000
0FF80000
07E00000
ENDCHAR
STARTCHAR eogonek
ENCODING 281
SWIDTH 471 0
DWIDTH 13 0
BBX 12 21 1 -7
BITMAP
001BF4
00BEBD
02F43E
0BD03E
1FC07E
3F41FD
7F07F8
BE6FD0
BFF900
BD0000
BD0010
7E01B0
2FABE0
0BFF80
007D00
01F400
03E000
07D000
0BD500
0BFC00
07E400
ENDCHAR
STARTCHAR Ecaron
ENCODING 282
SWIDTH 509 0
DWIDTH 14 0
BBX 17 27 1 0
BITMAP
0001A40280
0001FD1F80
00007EBE00
00003FE400
0000190000
0000000000
0001BFE000
000BFAB800
007F802D00
00FE003D00
02F800BD00
07F002F800
0BE01FF400
0BD01FD000
0BD0050000
0BD0000000
03FA800000
01FFE00000
07FE400000
1FF4000000
3F80000000
BF00000000
BE00180000
FD007C0000
BE01F80000
3FAFE00000
0AFE400000
ENDCHAR
STARTCHAR ecaron
ENCODING 283
SWIDTH 471 0
DWIDTH 13 0
BBX 15 21 1 0
BITMAP
001A0028
001F40B8
000F87E0
000BEF40
0007F400
00024000
00000000
001BF400
00BEBD00
02F43E00
0BD03E00
1FC07E00
2F41FD00
7F07F800
BE6FD000
BFF90000
FD000000
BD001000
7E01B000
2FABE000
0BFE4000
ENDCHAR
STARTCHAR Gcircumflex
ENCODING 284
SWIDTH 598 0
DWIDTH 17 0
BBX 18 27 1 0
BITMAP
0000000A00
0000002F40
000001FF80
00001BDBD0
00002E02F0
0000000000
00001BE400
0001FEBD00
000BE01E00
002F801F00
00BE002F00
01FC007F00
03F401FD00
0BE007F800
0FD00BF000
1FC0024000
2F80000000
3F40140500
7F00BFFD00
7E00BFFC00
BE001FE000
BE000F0000
7E001F0000
7E002D0000
3F40B80000
1FEBE00000
02FE400000
ENDCHAR
STARTCHAR gcircumflex
ENCODING 285
SWIDTH 526 0
DWIDTH 15 0
BBX 14 30 1 -8
BITMAP
00000100
00000B80
00002FC0
0001FBD0
000BD3E0
007E42F0
00140050
00000000
001BE040
00BEBEE0
02F41FE0
0BD00FD0
1F801FC0
3F402F80
7F003F40
BE007F00
FD00FE00
FD02FD00
FC07FC00
BD1FF800
7FB9F400
1F92F000
0003E000
000BC000
000F8000
002F0000
00BD0000
02F80000
2FD00000
2A000000
ENDCHAR
STARTCHAR Gbreve
ENCODING 286
SWIDTH 598 0
DWIDTH 17 0
BBX 19 27 1 0
BITMAP
0000074028
00000BD1B4
00000BFFE0
000002FE40
0000000000
0000000000
00001BE400
0001FEBD00
000BE01E00
002F801F00
00BE002F00
01FC007F00
03F401FD00
0BE007F800
0FD00BF000
1FC0024000
2F80000000
3F40140500
7F00BFFD00
7E00BFFC00
BE001FE000
BE000F0000
7E001F0000
7E002D0000
3F40B80000
1FEBE00000
02FE400000
ENDCHAR
STARTCHAR gbreve
ENCODING 287
SWIDTH 526 0
DWIDTH 15 0
BBX 15 29 1 -8
BITMAP
00074018
000B8078
000BD1F0
0007FFD0
0002FE40
00000000
00000000
001BE040
00BEBEE0
02F41FE0
0BD00FD0
1F801FC0
3F402F80
7F003F40
BE007F00
FD00FE00
FD02FD00
FC07FC00
BD1FF800
7FB9F400
1F92F000
0003E000
000BC000
000F8000
002F0000
00BD0000
02F80000
2FD00000
2A000000
ENDCHAR
STARTCHAR Gdotaccent
ENCODING 288
SWIDTH 598 0
DWIDTH 17 0
BBX 16 27 1 0
BITMAP
00000050
000003F8
000007FC
000003F4
00000050
00000000
00001BE4
0001FEBD
000BE01E
002F801F
00BE002F
01FC007F
03F401FD
0BE007F8
0FD00BF0
1FC00240
2F800000
3F401405
7F00BFFD
7E00BFFC
BE001FE0
BE000F00
7E001F00
7E002D00
3F40B800
1FEBE000
02FE4000
ENDCHAR
STARTCHAR gdotaccent
ENCODING 289
SWIDTH 526 0
DWIDTH 15 0
BBX 14 29 1 -8
BITMAP
00007E00
0000FF00
0000FF00
00007D00
00000000
00000000
00000000
001BE040
00BEBEE0
02F41FE0
0BD00FD0
1F801FC0
3F402F80
7F003F40
BE007F00
FD00FE00
FD02FD00
FC07FC00
BD1FF800
7FB9F400
1F92F000
0003E000
000BC000
000F8000
002F0000
00BD0000
02F80000
2FD00000
2A000000
ENDCHAR
STARTCHAR Gcommaaccent
ENCODING 290
SWIDTH 598 0
DWIDTH 17 0
BBX 16 29 1 -8
BITMAP
00001BE4
0001FEBD
000BE01E
002F801F
00BE002F
01FC007F
03F400FE
0BE002FD
0FD00BF8
1FC007E0
2F800140
3F400000
7F001505
7E00BFFD
BE007FFC
BE001FE0
7E000F00
7E002E00
3F40BC00
1FEBE000
02FE4000
00000000
02800000
0FD00000
0BE00000
07D00000
0B800000
1F000000
28000000
ENDCHAR
STARTCHAR gcommaaccent
ENCODING 291
SWIDTH 526 0
DWIDTH 15 0
BBX 14 30 1 -8
BITMAP
00000680
00001E00
00007D00
0000BC00
0000BE00
00006800
00000000
00000000
001BE040
00BEBEE0
02F41FE0
0BD00FD0
1F801FC0
3F402F80
7F003F40
BE007F00
FD00FE00
FD02FD00
FC07FC00
BD1FF800
7FB9F400
1F92F000
0003E000
000BC000
000F8000
002F0000
00BD0000
02F80000
2FD00000
2A000000
ENDCHAR
STARTCHAR Hcircumflex
ENCODING 292
SWIDTH 668 0
DWIDTH 19 0
BBX 21 27 -1 0
BITMAP
000000074000
0000001FC000
000000BFD000
00000BE3F000
00001E41F400
000000000000
00AFD0000F40
01FBF4001F80
0052F4002F80
0003F4002F40
0003F0003F00
0007E0007E00
000BE000BD00
000FD000FC00
001FC001F800
002FEFFFFD00
01FFAAABF800
00BF000BD000
00BD000FC000
00FC001F8000
01F8002F4000
03F0003F0000
07E0007E0000
0FC000BD0000
2F4000BD5000
BD0000BFD000
B400002E4000
ENDCHAR
STARTCHAR hcircumflex
ENCODING 293
SWIDTH 555 0
DWIDTH 16 0
BBX 15 27 0 0
BITMAP
00002800
0000FD00
0007FD00
002F7E00
01FD2F00
03D00B40
000B4000
000FC000
001FC000
001F8000
002F4000
003F4000
003F0000
007E0BD0
00BD2FF4
00FCBFF4
01F5E2F4
02F783F0
03EE07E0
07FC0FC0
0FF41F80
1FD02F40
2F807F00
3F007E00
BE007E60
FC007FE0
74001F80
ENDCHAR
STARTCHAR Hbar
ENCODING 294
SWIDTH 668 0
DWIDTH 19 0
BBX 23 21 -1 0
BITMAP
00AFD0000F40
01FBF4001F80
0052F4001F80
0003F4002F40
0003F0003F40
01AFFFFFFFF8
03FFFFFFFFE0
004BD000FC00
000FC001F800
001FEFFFFD00
00BFAAABF800
01FF000BD000
007D000FC000
00FC001F8000
01F8002F4000
02F0003F0000
07E0007E0000
0FC000BD0000
2F4000BD5000
BD0000BFD000
B400002E4000
ENDCHAR
STARTCHAR hbar
ENCODING 295
SWIDTH 555 0
DWIDTH 16 0
BBX 15 23 0 0
BITMAP
00078000
0007D000
000BD000
006FEA40
02FFFF40
001F8000
002F4000
003F0000
003E0000
007D0BD0
00BC2FF4
00F8BFF4
01F5E2F4
02F783F0
03EE07E0
07FC0FC0
0BF01F80
1FD03F40
2F807F00
3F007E00
BE007E60
FC007FE0
78001F80
ENDCHAR
STARTCHAR Itilde
ENCODING 296
SWIDTH 327 0
DWIDTH 9 0
BBX 15 27 0 0
BITMAP
001B9024
007FF4B0
00FFFFD0
01D0BF40
00000000
00000000
01BF8000
03FBE000
0047E000
0007E000
000BD000
000FD000
000FC000
001F8000
002F8000
003F4000
007F0000
00BE0000
00FD0000
01F80000
02F40000
07F00000
0BD00000
1F800000
3F000000
FD000000
E4000000
ENDCHAR
STARTCHAR itilde
ENCODING 297
SWIDTH 286 0
DWIDTH 8 0
BBX 12 21 0 0
BITMAP
01B803
07FF4B
0FFFFD
1D1BE4
000000
000000
000000
02F800
02FC00
01FC00
01F800
02F000
03E000
0BD000
0F8000
1F4000
2F0000
3E0000
7FA000
3FE000
1F8000
ENDCHAR
STARTCHAR Imacron
ENCODING 298
SWIDTH 327 0
DWIDTH 9 0
BBX 14 25 0 0
BITMAP
00BFFFD0
00FFFF80
00000000
00000000
01BF8000
03FBE000
0047E000
0007E000
000BD000
000FD000
000FC000
001F8000
002F8000
003F4000
007F0000
00BE0000
00FD0000
01F80000
02F40000
07F00000
0BD00000
1F800000
3F000000
FD000000
E4000000
ENDCHAR
STARTCHAR imacron
ENCODING 299
SWIDTH 286 0
DWIDTH 8 0
BBX 11 18 0 0
BITMAP
1FFFFC
2FFFF4
000000
000000
02F800
02FC00
01FC00
01F800
02F000
03E000
0BD000
0F8000
1F4000
2F0000
3E0000
7FA000
3FE000
1F8000
ENDCHAR
STARTCHAR Ibreve
ENCODING 300
SWIDTH 327 0
DWIDTH 9 0
BBX 14 27 0 0
BITMAP
001E0060
002E01E0
002F57C0
001FFF40
0007F800
00000000
01BF8000
03FBE000
0047E000
0007E000
000BD000
000FD000
000FC000
001F8000
002F8000
003F4000
007F0000
00BE0000
00FD0000
01F80000
02F40000
07F00000
0BD00000
1F800000
3F000000
FD000000
E4000000
ENDCHAR
STARTCHAR ibreve
ENCODING 301
SWIDTH 286 0
DWIDTH 8 0
BBX 12 21 0 0
BITMAP
01D009
03E01D
03F47C
02FFF4
00BF80
000000
000000
02F800
02FC00
01FC00
01F800
02F000
03E000
0BD000
0F8000
1F4000
2F0000
3E0000
7FA000
3FE000
1F8000
ENDCHAR
STARTCHAR Iogonek
ENCODING 302
SWIDTH 327 0
DWIDTH 9 0
BBX 14 27 -4 -6
BITMAP
0001BF80
0003FBE0
000047E0
00000BE0
00000BD0
00000FD0
00000FC0
00001F80
00002F40
00003F00
00007E00
0000BD00
0000FC00
0001F800
0003F400
0007E000
000FD000
002F8000
007E0000
01F80000
02E00000
0B400000
2E000000
7C000000
BC400000
FFC00000
7E400000
ENDCHAR
STARTCHAR iogonek
ENCODING 303
SWIDTH 297 0
DWIDTH 8 0
BBX 11 28 -1 -7
BITMAP
0007E0
000BF4
000BF0
0007D0
000000
000000
000000
007F00
00BF40
003F00
003F00
007D00
00BC00
01F800
02F400
03E000
07D000
0BC000
0FC000
0FFC00
07F800
02D000
0B4000
2E0000
7D0000
BD5000
BFC000
7E4000
ENDCHAR
STARTCHAR Idotaccent
ENCODING 304
SWIDTH 327 0
DWIDTH 9 0
BBX 10 27 0 0
BITMAP
000140
000FF0
000FF0
000BE0
000140
000000
01BF80
03FBE0
0047E0
0007E0
000BD0
000FD0
000FC0
001F80
002F80
003F40
007F00
00BE00
00FD00
01F800
02F400
07F000
0BD000
1F8000
3F0000
FD0000
E40000
ENDCHAR
STARTCHAR dotlessi
ENCODING 305
SWIDTH 286 0
DWIDTH 8 0
BBX 7 14 0 0
BITMAP
02F8
02FC
01FC
01F8
02F0
03E0
0BD0
0F80
1F40
2F00
3E00
7FA0
3FE0
1F80
ENDCHAR
STARTCHAR IJ
ENCODING 306
SWIDTH 720 0
DWIDTH 20 0
BBX 21 29 0 -8
BITMAP
01BF800AFE00
03FBE0BFEF80
0047E3FD1FC0
0007E7F01FC0
000BD1802F80
000FD0002F80
000FC0003F40
001F80007F00
002F8000BE00
003F4000FE00
007F0001FD00
00BE0002FC00
00FD0003F800
01F80007F000
02F4000BE000
07F0000FD000
0BD0002FC000
1F80003F4000
3F00007F0000
FD0000FD0000
E40002FC0000
000003F40000
00000BE00000
00001FC00000
00007F400000
0000FD000000
0007F4000000
002FD0000000
007E00000000
ENDCHAR
STARTCHAR ij
ENCODING 307
SWIDTH 567 0
DWIDTH 16 0
BBX 17 29 0 -8
BITMAP
001F407E00
003FC0FF40
003F80BF00
001F407D00
0000000000
0000000000
0000000000
02F802F400
02FC03F800
01FC02F800
01F802F800
02F002F400
03E002F400
0BD003F000
0F8007E000
1F400BD000
2F000FC000
3E000F8000
7FA01F4000
3FE03F0000
1F807E0000
0000BD0000
0000F80000
0002F00000
0007D00000
000F800000
002F000000
01F8000000
02E0000000
ENDCHAR
STARTCHAR Jcircumflex
ENCODING 308
SWIDTH 393 0
DWIDTH 11 0
BBX 20 35 -5 -8
BITMAP
0000000040
00000002E0
0000000BF4
000000BEF8
000007F4BD
0000014015
00001AF900
0001BFAF80
0007FD1FC0
0007E01F80
0001802F80
0000003F40
0000007F40
0000007F00
000000BE00
000000FD00
000001FC00
000002F800
000003F400
000007F000
00000FE000
00001FC000
00002F8000
00007F4000
0000BE0000
0001FD0000
0002F80000
0007F00000
000FD00000
002F800000
007F000000
01FD000000
07F4000000
2FD0000000
B900000000
ENDCHAR
STARTCHAR jcircumflex
ENCODING 309
SWIDTH 282 0
DWIDTH 8 0
BBX 16 29 -5 -8
BITMAP
000000A0
000003F4
00001FF4
0000BDF8
0007F4BC
000F402D
00000000
0000BE00
0000FF00
00007E00
00007E00
0000BD00
0000BD00
0000FC00
0001F800
0002F400
0003F000
0003E000
0007D000
000FC000
001F8000
002F4000
007E0000
00BD0000
01F80000
03E00000
0BC00000
6F000000
B8000000
ENDCHAR
STARTCHAR Kcommaaccent
ENCODING 310
SWIDTH 616 0
DWIDTH 17 0
BBX 19 29 -1 -8
BITMAP
01BF4001E4
03FBD001FC
0147E000FC
0007E001FC
000BE002F8
000FD003F4
000FC00BE0
001FC02F80
002F80BE00
003F42F400
007F1F8000
00BE7D0000
00FFF80000
01FDFD0000
02F87F4000
07F42FC000
0BE00FE000
1FC007F400
3F4002FC00
BE0000FFA0
F400002F90
0000000000
0019000000
003F400000
003F400000
002F000000
003D000000
00B8000000
00E0000000
ENDCHAR
STARTCHAR kcommaaccent
ENCODING 311
SWIDTH 497 0
DWIDTH 14 0
BBX 14 30 0 -8
BITMAP
00078000
000BD000
000BD000
000FC000
000F8000
001F4000
002F4000
003F0000
007E07D0
00BD07F0
00F807F0
01F40BE0
02F02F80
03E2FD00
07EFD000
0BFE0000
0FEF0000
2F5F8000
3F0FD000
BD07F980
FC02FF80
B400BE00
00000000
01900000
07F00000
07F00000
02E00000
03D00000
0B400000
1D000000
ENDCHAR
STARTCHAR kgreenlandic
ENCODING 312
SWIDTH 497 0
DWIDTH 14 0
BBX 15 14 0 0
BITMAP
02F407E0
02FC07F4
01F803F4
01F80BE0
02F42FD0
03F1FE00
07EFE400
0BFF4000
1FFF4000
2F9F8000
3F4BD000
BE07F540
FD02FFC0
78007E00
ENDCHAR
STARTCHAR Lacute
ENCODING 313
SWIDTH 517 0
DWIDTH 15 0
BBX 18 27 -1 0
BITMAP
00000001E0
00000003F0
0000000BE0
0000001F80
0000007900
0000000000
000006F800
00001FAF00
00007E0B40
0001FC0780
0002F40B80
0007E01F80
000FD07F40
001FC1FE00
002F87FC00
003F47F400
007E014000
00BD000000
01FC000000
02F8000000
03F0000000
07E0000000
0BC0000000
1F40550000
7E6FFFD000
BFFFFFE000
3E9401B000
ENDCHAR
STARTCHAR lacute
ENCODING 314
SWIDTH 279 0
DWIDTH 8 0
BBX 12 27 1 0
BITMAP
00003C
00007E
0000FD
0002F4
000B80
000000
002C00
003E00
007D00
00BD00
00FC00
00F800
01F400
02F000
03E000
0BD000
0FC000
1F8000
2F4000
3F0000
7E0000
BD0000
FC0000
F80000
FD4000
FFC000
6E0000
ENDCHAR
STARTCHAR Lcommaaccent
ENCODING 315
SWIDTH 517 0
DWIDTH 15 0
BBX 17 29 -1 -8
BITMAP
000006F800
00001FAF00
00007E0B40
0001FC0780
0002F40B80
0007E01F80
000FD07F40
001FC1FE00
002F87FC00
003F47F400
007E014000
00BD000000
01FC000000
02F8000000
03F0000000
07E0000000
0BC0000000
1F40550000
7E6FFFD000
BFFFFFE000
3E9401B000
0000000000
0190000000
07F0000000
03F4000000
02F0000000
03D0000000
0B80000000
0D00000000
ENDCHAR
STARTCHAR lcommaaccent
ENCODING 316
SWIDTH 279 0
DWIDTH 8 0
BBX 9 30 0 -8
BITMAP
000B40
000FC0
000FC0
001F80
002F40
003F00
003E00
007D00
00BC00
00F800
01F400
02F000
03E000
07D000
0FC000
1F8000
2F4000
2F0000
3F0000
3F4000
3FF400
1B9000
000000
190000
3F4000
3F4000
2F0000
3D0000
B80000
E00000
ENDCHAR
STARTCHAR Lcaron
ENCODING 317
SWIDTH 517 0
DWIDTH 15 0
BBX 22 27 -1 0
BITMAP
000000000050
0000000003F0
0000000003F0
0000000002F0
0000000002E0
0000000007C0
000006F80F00
00001FAF1800
00007E0B4000
0001FC078000
0002F40B8000
0007E01F8000
000FD07F4000
001FC1FE0000
002F87FC0000
003F47F40000
007E01400000
00BD00000000
01FC00000000
02F800000000
03F000000000
07E000000000
0BC000000000
1F4055000000
7E6FFFD00000
BFFFFFE00000
3E9401B00000
ENDCHAR
STARTCHAR lcaron
ENCODING 318
SWIDTH 467 0
DWIDTH 13 0
BBX 15 23 1 0
BITMAP
002D01F0
003F02F4
003F01F4
007E01F0
00BD02E0
00BD0780
00FC0E00
01F80000
02F40000
03F00000
07E00000
0BD00000
0FC00000
1F800000
2F400000
3F000000
7E000000
BD000000
FC000000
FC000000
FD900000
BFC00000
6E000000
ENDCHAR
STARTCHAR Ldot
ENCODING 319
SWIDTH 668 0
DWIDTH 19 0
BBX 20 21 -1 0
BITMAP
000006F800
00001FAF00
00007E0B40
0001FC0780
0002F40B80
0007E01F80
000FD07F40
001FC1FE00
002F87FC00
003F47F400
007E014069
00BD0000FF
01FC0000FF
02F800007D
03F0000010
07E0000000
0BC0000000
1F40550000
7E6FFFD000
BFFFFFE000
3E9401B000
ENDCHAR
STARTCHAR ldot
ENCODING 320
SWIDTH 489 0
DWIDTH 14 0
BBX 13 23 1 0
BITMAP
002D0000
003F0000
003F0000
007E0000
00BD0000
00BD0000
00FC0000
01F80000
02F40000
03F00000
07E00000
0BD01500
0FC0BF40
1F80FF40
2F40BF00
3F002800
7E000000
BD000000
FC000000
FC000000
FD900000
BFC00000
6E000000
ENDCHAR
STARTCHAR Lslash
ENCODING 321
SWIDTH 517 0
DWIDTH 15 0
BBX 17 21 -1 0
BITMAP
000006F800
00001FAF00
00007E0B40
0001FC0780
0002F40B80
0007E01F80
000FD07F40
001FC1FE00
002F87FC00
003F07F000
007E014000
00BFE00000
0BFFF80000
3FF9500000
27F0000000
07D0000000
0BC0000000
1F415A4000
7EAFFFD000
BFFFFFF000
3E9401B000
ENDCHAR
STARTCHAR lslash
ENCODING 322
SWIDTH 279 0
DWIDTH 8 0
BBX 12 23 1 0
BITMAP
01E400
02FFFE
007F90
007E00
00BD00
00BC00
00F800
01F400
02F400
03F000
07E000
0BD000
0FC000
1F8000
2F4000
3F0000
7E0000
BD0000
FC0000
F80000
FD4000
FFC000
7E4000
ENDCHAR
STARTCHAR Nacute
ENCODING 323
SWIDTH 708 0
DWIDTH 20 0
BBX 22 27 0 0
BITMAP
000000000B40
000000000FC0
000000002F80
000000007E00
00000001E400
000000000000
00002E001F40
0001FF002FD0
0003FE000FE0
000BFE000BE0
001F7E000BE0
003D7E000BD0
007C7E000FC0
00F47E001F40
01F07E002F00
02E07E003E00
07D07F007C00
0BC03F00F400
0F803F41F000
1F402F83D000
2F001F878000
3E000FCB4000
3E000FEE0000
7D0007FD0000
7C0003FC0000
7C0001F80000
280000740000
ENDCHAR
STARTCHAR nacute
ENCODING 324
SWIDTH 561 0
DWIDTH 16 0
BBX 15 22 0 0
BITMAP
000000F4
000001F8
000002F4
000007E0
00000F80
00003E00
00001000
00000000
02F407E0
02FC2FF4
01F8BFF8
01FAE1F4
02F782F4
03EE07E0
07FC0BD0
0BF41FC0
0FD02F40
2F803F00
3F007E00
BE007E50
FC003FF0
78001F80
ENDCHAR
STARTCHAR Ncommaaccent
ENCODING 325
SWIDTH 708 0
DWIDTH 20 0
BBX 22 29 0 -8
BITMAP
00002E001F40
0001FF002FD0
0003FE000FE0
000BFE000BE0
001F7E000BE0
003D7E000BD0
007C7E000FC0
00F47E001F40
01F07E002F00
02E07E003E00
07D07F007C00
0BC03F00F400
0F803F41F000
1F402F83D000
2F001F878000
3E000FCB4000
3E000FEE0000
7D0007FD0000
7C0003FC0000
7C0001F80000
280000740000
000000000000
000190000000
0007F0000000
0003F0000000
0002F0000000
0003D0000000
000B80000000
001D00000000
ENDCHAR
STARTCHAR ncommaaccent
ENCODING 326
SWIDTH 561 0
DWIDTH 16 0
BBX 15 22 0 -8
BITMAP
02F407E0
02FC2FF4
01F8BFF8
01FAE1F4
02F782F4
03EE07E0
07FC0BD0
0BF41FC0
0FD02F40
2F803F00
3F007E00
BE007E50
FC003FF0
78001F80
00000000
01900000
03F40000
02F40000
01F00000
02E00000
07800000
0E000000
ENDCHAR
STARTCHAR Ncaron
ENCODING 327
SWIDTH 708 0
DWIDTH 20 0
BBX 22 27 0 0
BITMAP
0000002E0060
0000002F82F0
0000000FEFD0
0000000BF900
000000024000
000000000000
00002E001F40
0001FF002FD0
0003FE000FE0
000BFE000BE0
001F7E000BE0
003D7E000BD0
007C7E000FC0
00F47E001F40
01F07E002F00
02E07E003E00
07D07F007C00
0BC03F00F400
0F803F41F000
1F402F83D000
2F001F878000
3E000FCB4000
3E000FEE0000
7D0007FD0000
7C0003FC0000
7C0001F80000
280000740000
ENDCHAR
STARTCHAR ncaron
ENCODING 328
SWIDTH 561 0
DWIDTH 16 0
BBX 17 21 0 0
BITMAP
0001A00280
0001F40B80
0000B87F00
0000BEF800
00007F8000
0000240000
0000000000
02F407E000
02FC2FF400
01F8BFF800
01FAE1F400
02F782F400
03EE07E000
07FC0BD000
0BF41FC000
0FD02F4000
2F803F0000
3F007E0000
BE007E5000
FC003FF000
78001F8000
ENDCHAR
STARTCHAR Eng
ENCODING 330
SWIDTH 698 0
DWIDTH 20 0
BBX 22 29 0 -8
BITMAP
00006E002E40
0001FE003FC0
0007FD001FD0
000FFD000FD0
002EBD000FD0
007DBD000FD0
00B8BD000FC0
01F4BD001F80
02E0BD002F40
03D0BD002F00
07C0BE003E00
0F807F007D00
1F407F00BC00
2F003F40F800
2E002F81F400
3E002FC3E000
7D000FD7D000
BC000BEB8000
BC0007FF0000
B80002FE0000
740002FC0000
000007F40000
00000BE00000
00002F800000
00007E000000
0001FC000000
0007E0000000
006F80000000
00B900000000
ENDCHAR
STARTCHAR eng
ENCODING 331
SWIDTH 561 0
DWIDTH 16 0
BBX 15 22 0 -8
BITMAP
02F407E0
02FC2FF4
01F8BFF8
01FAE1F8
02F781F4
03EE02F0
07FC03E0
0BF407E0
0FD00BC0
2F800F80
3F001F40
BE003F00
FC007E00
7800FC00
0001F800
0003F000
000BD000
001F8000
003F0000
00BD0000
02F40000
07900000
ENDCHAR
STARTCHAR Omacron
ENCODING 332
SWIDTH 655 0
DWIDTH 18 0
BBX 19 25 1 0
BITMAP
00001FFFF8
00002FFFF4
0000000000
0000000000
00001BF900
0001FEAF40
0007F40BC0
002FC007D0
007F4003E0
00FD0003E0
02F80007E0
07F40007E0
0BE0000BE0
1FD0000FD0
2F80001FC0
2F40002F80
3F00007F40
7F0000BE00
7E0001FD00
7E0003F400
7E000BE000
3E002F8000
2F40BE0000
0BEBF40000
01BE800000
ENDCHAR
STARTCHAR omacron
ENCODING 333
SWIDTH 514 0
DWIDTH 14 0
BBX 15 18 1 0
BITMAP
002FFFF4
003FFFE0
00000000
00000000
001BE400
00BEBD00
03F42F00
0BE02F40
1FC02F40
3F403F40
7F003F00
BE007E00
FD00FD00
FC01FC00
FC03F400
BC0FD000
3EBF4000
1BF80000
ENDCHAR
STARTCHAR Obreve
ENCODING 334
SWIDTH 655 0
DWIDTH 18 0
BBX 19 27 1 0
BITMAP
000002C01C
000007D0B8
000007FFE0
000001FF40
0000000000
0000000000
00001BF900
0001FEAF40
0007F40BC0
002FC007D0
007F4003E0
00FD0003E0
02F80007E0
07F40007E0
0BE0000BE0
1FD0000FD0
2F80001FC0
2F40002F80
3F00007F40
7F0000BE00
7E0001FD00
7E0003F400
7E000BE000
3E002F8000
2F40BE0000
0BEBF40000
01BE800000
ENDCHAR
STARTCHAR obreve
ENCODING 335
SWIDTH 514 0
DWIDTH 14 0
BBX 15 21 1 0
BITMAP
00038018
000B8038
000BD1F4
0007FFD0
0002FE40
00000000
00000000
001BE400
00BEBD00
03F42F00
0BE02F40
1FC02F40
3F403F40
7F003F00
BE007E00
FD00FD00
FC01FC00
FC03F400
BC0FD000
3EBF4000
1BF80000
ENDCHAR
STARTCHAR Ohungarumlaut
ENCODING 336
SWIDTH 655 0
DWIDTH 18 0
BBX 20 27 1 0
BITMAP
000000B42D
000000F83D
000001F47C
000007D1F4
00000E4390
0000000000
00001BF900
0001FEAF40
0007F40BC0
002FC007D0
007F4003E0
00FD0003E0
02F80007E0
07F40007E0
0BE0000BE0
1FD0000FD0
2F80001FC0
2F40002F80
3F00007F40
7F0000BE00
7E0001FD00
7E0003F400
7E000BE000
3E002F8000
2F40BE0000
0BEBF40000
01BE800000
ENDCHAR
STARTCHAR ohungarumlaut
ENCODING 337
SWIDTH 514 0
DWIDTH 14 0
BBX 15 22 1 0
BITMAP
0000B03C
0001F47C
0002F0BC
0007D1F4
001F47D0
003D1F40
00501400
00000000
001BE400
00BEBD00
03F42F00
0BE02F40
1FC02F40
3F403F40
7F003F00
BE007E00
FD00FD00
FC01FC00
FC03F400
BC0FD000
3EBF4000
1BF80000
ENDCHAR
STARTCHAR OE
ENCODING 338
SWIDTH 900 0
DWIDTH 25 0
BBX 26 21 3 0
BITMAP
00006FE41AFE40
0002FEBFBFEBD0
001FE01FFD01E0
007F400FF002E0
00FE001FD007E0
02F8003F402FC0
07F0007F00BF40
0FD0007E00FE00
1FC0007E006400
3F80003E000000
7F00002FA90000
7E00000BFF0000
BD00002FF40000
FD0000BF400000
FC0002FD000000
FC0007F4000000
FC000FF0009000
BC003FE002D000
3E01FFF01BD000
1FABF6FEBF4000
06FE406FE40000
ENDCHAR
STARTCHAR oe
ENCODING 339
SWIDTH 777 0
DWIDTH 22 0
BBX 21 14 1 0
BITMAP
0006F802FD00
007FBF1FAF40
01FC0FFD0F80
07F40FF80FC0
0BD00FF01F80
1FC01FE03F40
2F402FC0FE00
3F003F9BF800
7F007FFF8000
7E00BF900000
7E01FF400400
3E07FF806D00
1FAFDFEAF800
06FA02FF9000
ENDCHAR
STARTCHAR Racute
ENCODING 340
SWIDTH 623 0
DWIDTH 17 0
BBX 19 28 -1 -1
BITMAP
00000002D0
00000007E0
0000000BD0
0000002F40
0000007900
0000000000
0005BFF900
002FFAAF80
00BF4007E0
00785002F4
0001F401F4
0003F402F4
0007E003F4
000BD007F0
001FC01FD0
002F807F80
003F47FD00
007FFFE400
00BEFE4000
00FD3E0000
01F82F4000
03F40FC000
07E00BE000
0FD003F400
2F8002FC00
7E0000FF90
B800002FD0
0000000100
ENDCHAR
STARTCHAR racute
ENCODING 341
SWIDTH 407 0
DWIDTH 11 0
BBX 13 22 0 0
BITMAP
00000B80
00000FC0
00001F80
00003F40
0000BD00
0002E000
00014000
00000000
02E01F40
03F87F80
02F5FF80
02F7DB00
02FB0000
03ED0000
07F80000
0BE00000
0FD00000
1F800000
2F400000
7F000000
BD000000
2C000000
ENDCHAR
STARTCHAR Rcommaaccent
ENCODING 342
SWIDTH 623 0
DWIDTH 17 0
BBX 19 29 -1 -8
BITMAP
0005BFF900
002FFAAF80
00BF4007E0
00785002F4
0001F401F4
0003F402F4
0007E003F4
000BD007F0
001FC01FD0
002F807F80
003F47FD00
007FFFE400
00BEFE4000
00FD3E0000
01F82F4000
03F40FC000
07E00BE000
0FD003F400
2F8002FC00
7E0000FF90
B800002FD0
0000000100
0018000000
00BE000000
007F000000
003E000000
007C000000
00F4000000
0190000000
ENDCHAR
STARTCHAR rcommaaccent
ENCODING 343
SWIDTH 407 0
DWIDTH 11 0
BBX 15 22 -2 -8
BITMAP
002E01F4
003F87F8
002F5FF8
002F7DB0
002FB000
003ED000
007F8000
00BE0000
00FD0000
01F80000
03F40000
07F00000
0BD00000
02C00000
00000000
0A000000
2F800000
1F800000
0F400000
1F000000
3D000000
A4000000
ENDCHAR
STARTCHAR Rcaron
ENCODING 344
SWIDTH 623 0
DWIDTH 17 0
BBX 19 28 -1 -1
BITMAP
00001A4028
00001FD1B8
000007EBE0
000003FE40
0000019000
0000000000
0005BFF900
002FFAAF80
00BF4007E0
00785002F4
0001F401F4
0003F402F4
0007E003F4
000BD007F0
001FC01FD0
002F807F80
003F47FD00
007FFFE400
00BEFE4000
00FD3E0000
01F82F4000
03F40FC000
07E00BE000
0FD003F400
2F8002FC00
7E0000FF90
B800002FD0
0000000100
ENDCHAR
STARTCHAR rcaron
ENCODING 345
SWIDTH 407 0
DWIDTH 11 0
BBX 15 21 0 0
BITMAP
000A401C
000F80BC
0007C6F4
0007EF80
0003F900
00014000
00000000
02E01F40
03F87F80
02F5FF80
02F7DB00
02FB0000
03ED0000
07F80000
0BE00000
0FD00000
1F800000
2F400000
7F000000
BD000000
2C000000
ENDCHAR
STARTCHAR Sacute
ENCODING 346
SWIDTH 474 0
DWIDTH 13 0
BBX 17 27 0 0
BITMAP
0000000B40
0000001F80
0000003F40
000000BD00
000001E000
0000000000
0001BF8000
000BEAF400
002F40B800
00BD007D00
00F8007D00
01F400BD00
02F401FC00
03F407F800
03F80FF000
02FC078000
01FE000000
00FF400000
007FC00000
001FE00000
000BF00000
1903F00000
3D02F00000
7D01F00000
7E02D00000
2FAF400000
0BF9000000
ENDCHAR
STARTCHAR sacute
ENCODING 347
SWIDTH 423 0
DWIDTH 12 0
BBX 14 22 0 0
BITMAP
00000780
00000BD0
00001FC0
00002F40
0000BD00
0001E400
00014000
00000000
002FE400
01FAFD00
03E03E00
07E03E00
07F02800
03F40000
02FD0000
00FF0000
007F4000
142F8000
781F8000
BD1F8000
7FBE0000
1BE40000
ENDCHAR
STARTCHAR Scircumflex
ENCODING 348
SWIDTH 474 0
DWIDTH 13 0
BBX 17 27 0 0
BITMAP
0000002800
000001FD00
000007FE00
00007F6F40
0000F40B80
0000000000
0001BF8000
000BEAF400
002F40B800
00BD007D00
00F8007D00
01F400BD00
02F401FC00
03F407F800
03F80FF000
02FC078000
01FE000000
00FF400000
007FC00000
001FE00000
000BF00000
1903F00000
3D02F00000
7D01F00000
7E02D00000
2FAF400000
0BF9000000
ENDCHAR
STARTCHAR scircumflex
ENCODING 349
SWIDTH 423 0
DWIDTH 12 0
BBX 14 22 0 0
BITMAP
00000100
00001F40
00007F80
0002FFC0
001FD7D0
00BE03E0
00540050
00000000
002FE400
01FAFD00
03E03E00
07E03E00
07F02800
03F40000
02FD0000
00FF0000
007F4000
142F8000
781F8000
BD1F8000
7FBE0000
1BE40000
ENDCHAR
STARTCHAR Scedilla
ENCODING 350
SWIDTH 474 0
DWIDTH 13 0
BBX 16 27 0 -6
BITMAP
0001BF80
000BEAF4
002F40BC
00BD007D
00F8007D
02F400BD
02F401FC
03F40BF8
02F80FE0
02FC0680
01FE0000
00BF4000
003FC000
001FE000
0007F000
2D02F000
3D01F000
7D02F000
7F47D000
2FFF4000
07F90000
00E00000
00F00000
01F00000
07F00000
1FE00000
0F800000
ENDCHAR
STARTCHAR scedilla
ENCODING 351
SWIDTH 423 0
DWIDTH 12 0
BBX 12 20 0 -6
BITMAP
002FE4
00FAFD
03E03E
07E03E
07F028
03F400
02FD00
00FF00
007F40
282F80
B81F80
BC0F80
3FBE00
0BF400
038000
03C000
07C000
1FC000
7F8000
2E0000
ENDCHAR
STARTCHAR Scaron
ENCODING 352
SWIDTH 474 0
DWIDTH 13 0
BBX 18 27 0 0
BITMAP
00006900A0
00007F47E0
00001FAF80
00000FF900
0000064000
0000000000
0001BF8000
000BEAF400
002F40B800
00BD007D00
00F8007D00
01F400BD00
02F401FC00
03F407F800
03F80FF000
02FC078000
01FE000000
00FF400000
007FC00000
001FE00000
000BF00000
1903F00000
3D02F00000
7D01F00000
7E02D00000
2FAF400000
0BF9000000
ENDCHAR
STARTCHAR scaron
ENCODING 353
SWIDTH 423 0
DWIDTH 12 0
BBX 16 21 0 0
BITMAP
00064009
0007D07E
0003E1F8
0002FBD0
0001FD00
00009000
00000000
002FE400
01FAFD00
03E03E00
07E03E00
07F02800
03F40000
02FD0000
00FF0000
007F4000
142F8000
781F8000
BD1F8000
7FBE0000
1BE40000
ENDCHAR
STARTCHAR Tcommaaccent
ENCODING 354
SWIDTH 471 0
DWIDTH 13 0
BBX 17 29 1 -8
BITMAP
06FE400180
1FFFFA5740
3FFFFFFF00
3F40FEFD00
3D01F80000
2C02F40000
0003F00000
0007E00000
000BD00000
000FD00000
001FC00000
002F800000
003F400000
007E000000
00BD000000
00FC000000
01F4000000
03F0000000
0BD0000000
2F80000000
3D00000000
0000000000
0640000000
1FC0000000
1FC0000000
0F80000000
1F40000000
2D00000000
7400000000
ENDCHAR
STARTCHAR tcommaaccent
ENCODING 355
SWIDTH 358 0
DWIDTH 10 0
BBX 11 25 0 -8
BITMAP
000B40
002F40
007E00
0BFFFC
06FA50
02F400
03F000
07E000
0BD000
0FC000
0F8000
1F4000
1F4000
2F4140
1F9B40
1FFE00
07E400
000000
0A0000
3F4000
2F8000
1F4000
2E0000
7C0000
A00000
ENDCHAR
STARTCHAR Tcaron
ENCODING 356
SWIDTH 471 0
DWIDTH 13 0
BBX 17 27 2 0
BITMAP
0001A40240
0001FC1F40
0000BEBE00
00003FE000
0000190000
0000000000
1BFE951A00
7FFFFFFD00
FFFFFFF400
F903F00000
B007E00000
000BD00000
000FC00000
001F800000
002F400000
003F000000
007E000000
00BD000000
00FC000000
01F8000000
02F4000000
03F0000000
07D0000000
0FC0000000
2F40000000
BD00000000
F400000000
ENDCHAR
STARTCHAR tcaron
ENCODING 357
SWIDTH 497 0
DWIDTH 14 0
BBX 15 23 2 0
BITMAP
000000B4
000001F8
000001F8
000000F4
000001E0
002D03C0
007E0A40
00BD0000
01FC0000
2FFFF000
1BF94000
0BD00000
0FC00000
1F800000
1F400000
2F000000
3E000000
7E000000
7D000000
7D060000
7E6E0000
3FF80000
1B900000
ENDCHAR
STARTCHAR Tbar
ENCODING 358
SWIDTH 471 0
DWIDTH 13 0
BBX 16 21 2 0
BITMAP
1BFE951A
7FFFFFFD
FFFFFFF4
F903F000
B007E000
100BD000
001FC000
002F8000
003F4000
6ABFA000
FFFFE000
00FD0000
00FC0000
01F80000
02F40000
03E00000
0BD00000
0F800000
2F400000
BD000000
F4000000
ENDCHAR
STARTCHAR tbar
ENCODING 359
SWIDTH 358 0
DWIDTH 10 0
BBX 11 18 0 0
BITMAP
000B40
001F80
003F40
007E00
0BFFFC
06FA50
02F400
03F000
03F000
2FFFF4
6FEA90
0F8000
1F4000
1F4000
2F4140
2F9B40
1FFE00
07E400
ENDCHAR
STARTCHAR Utilde
ENCODING 360
SWIDTH 624 0
DWIDTH 17 0
BBX 20 27 0 0
BITMAP
000006E00C
00002FFC6C
00007FFFF4
0000B07F80
0000000000
0000000000
001F800078
002FD000BD
000FD001FC
000FC002F4
001F8007F0
002F400BE0
007F001FD0
00BD003FC0
00FC007F80
02F800FF40
03F001FF00
07E003FE00
0FD00BFD00
1F801EFC00
2F402DF800
3F00B5F400
7E01E2F400
7E0782F000
7F5E02F580
3FF801FF80
1F9000BE00
ENDCHAR
STARTCHAR utilde
ENCODING 361
SWIDTH 553 0
DWIDTH 15 0
BBX 17 21 0 0
BITMAP
00007E01C0
0002FF8780
0007FFFF40
000A07F800
0000000000
0000000000
0000000000
01F8007800
02FC00FC00
00FC01F800
01F803F400
02F40BE000
03F01FD000
0BE02FC000
0FD07F4000
2F81EF0000
3F43AE0000
7F0B3E0000
7E7C3E5000
3FF43FF000
1F801F8000
ENDCHAR
STARTCHAR Umacron
ENCODING 362
SWIDTH 624 0
DWIDTH 17 0
BBX 20 25 0 0
BITMAP
00002FFFF4
00007FFFE0
0000000000
0000000000
001F800078
002FD000BD
000FD001FC
000FC002F4
001F8007F0
002F400BE0
007F001FD0
00BD003FC0
00FC007F80
02F800FF40
03F001FF00
07E003FE00
0FD00BFD00
1F801EFC00
2F402DF800
3F00B5F400
7E01E2F400
7E0782F000
7F5E02F580
3FF801FF80
1F9000BE00
ENDCHAR
STARTCHAR umacron
ENCODING 363
SWIDTH 553 0
DWIDTH 15 0
BBX 16 18 0 0
BITMAP
0003FFFF
0007FFFD
00000000
00000000
01F80078
02FC00FC
00FC01F8
01F803F4
02F40BE0
03F01FD0
0BE02FC0
0FD07F40
2F81EF00
3F43AE00
7F0B3E00
7E7C3E50
3FF43FF0
1F801F80
ENDCHAR
STARTCHAR Ubreve
ENCODING 364
SWIDTH 624 0
DWIDTH 17 0
BBX 20 27 0 0
BITMAP
0000074024
00000F81F4
00000FFFD0
000006FE40
0000000000
0000000000
001F800078
002FD000BD
000FD001FC
000FC002F4
001F8007F0
002F400BE0
007F001FD0
00BD003FC0
00FC007F80
02F800FF40
03F001FF00
07E003FE00
0FD00BFD00
1F801EFC00
2F402DF800
3F00B5F400
7E01E2F400
7E0782F000
7F5E02F580
3FF801FF80
1F9000BE00
ENDCHAR
STARTCHAR ubreve
ENCODING 365
SWIDTH 553 0
DWIDTH 15 0
BBX 17 21 0 0
BITMAP
0000700240
0000F40740
0000F82E00
0000BFF800
00002FE000
0000000000
0000000000
01F8007800
02FC00FC00
00FC01F800
01F803F400
02F40BE000
03F01FD000
0BE02FC000
0FD07F4000
2F81EF0000
3F43AE0000
7F0B3E0000
7E7C3E5000
3FF43FF000
1F801F8000
ENDCHAR
STARTCHAR Uring
ENCODING 366
SWIDTH 624 0
DWIDTH 17 0
BBX 20 27 0 0
BITMAP
0000007F40
000002FBD0
000007C2E0
00000B82E0
00000F43D0
00000B8BC0
001F87FE78
002FD064BD
000FD001FC
000FC002F4
001F8007F0
002F400BE0
007F001FD0
00BD003FC0
00FC007F80
02F800FF40
03F001FF00
07E003FE00
0FD00BFD00
1F801FFC00
2F402DF800
3F00B9F400
7E01E2F400
7E07C2F000
7F5F02F580
3FF802FF80
1F9000BE00
ENDCHAR
STARTCHAR uring
ENCODING 367
SWIDTH 553 0
DWIDTH 15 0
BBX 16 22 0 0
BITMAP
00000BF4
00003EBD
0000B83D
0000F43D
0000F4BC
0000BFE0
00001640
00000000
01F80078
02FC00FC
00FC01F8
01F803F4
02F40BE0
03F01FD0
0BE02FC0
0FD07F40
2F81EF00
3F43AE00
7F0B3E00
7E7C3E50
3FF43FF0
1F801F80
ENDCHAR
STARTCHAR Uhungarumlaut
ENCODING 368
SWIDTH 624 0
DWIDTH 17 0
BBX 20 28 0 0
BITMAP
0000000010
000000F078
000001F0BC
000003E0F8
00000B82E0
00002D0B40
0000000000
001F800078
002FD000BD
000FD001FC
000FC002F4
001F8007F0
002F400BE0
007F001FD0
00BD003FC0
00FC007F80
02F800FF40
03F001FF00
07E003FE00
0FD00BFD00
1F801EFC00
2F402DF800
3F00B5F400
7E01E2F400
7E0782F000
7F5E02F580
3FF801FF80
1F9000BE00
ENDCHAR
STARTCHAR uhungarumlaut
ENCODING 369
SWIDTH 553 0
DWIDTH 15 0
BBX 17 22 0 0
BITMAP
00000E0780
00002F0B80
00003E1F40
0000BC2E00
0002F0BC00
000782E000
0005014000
0000000000
01F8007800
02FC00FC00
00FC01F800
01F803F400
02F40BE000
03F01FD000
0BE02FC000
0FD07F4000
2F81EF0000
3F43AE0000
7F0B3E0000
7E7C3E5000
3FF43FF000
1F801F8000
ENDCHAR
STARTCHAR Uogonek
ENCODING 370
SWIDTH 684 0
DWIDTH 19 0
BBX 19 28 1 -7
BITMAP
002F800078
002FD000FC
000FC001F8
001FC003F4
002F8007F0
003F400FD0
007E001FC0
00FD003F80
01FC00BF40
02F400FF00
03F002FE00
0BE003FD00
0FC00BFC00
1F801EF800
2F403DF400
3F00B6F400
7E01E2F000
BD0783F000
BE6E03F540
7FF802FF80
1F9000BE00
000000B400
000003D000
00000B8000
00000F4000
00001F9400
00001FF400
00000B9000
ENDCHAR
STARTCHAR uogonek
ENCODING 371
SWIDTH 553 0
DWIDTH 15 0
BBX 15 21 0 -7
BITMAP
01F80078
02FC00FC
00FC01F8
01F803F4
02F40BE0
03F01FD0
0BE02FC0
0FD07F40
2F81EF00
3F43AE00
7F0B3E00
7E7C3E50
3FF43FF0
1F801FD0
00001F40
00007D00
0000F400
0002F000
0003F500
0003FF00
0001F800
ENDCHAR
STARTCHAR Wcircumflex
ENCODING 372
SWIDTH 941 0
DWIDTH 26 0
BBX 26 27 2 0
BITMAP
00000000740000
00000001FC0000
0000000BFD0000
000000BE3F0000
000001E41F4000
00000000000000
0AF80000000B80
7FFE0000001FD0
BFFF0000000FE0
292F4000000BF0
007F0001400BF0
00BD001FD007F0
01FC007F8007E0
03F801FF000BE0
07F007FD000BD0
0BE01FF8000FC0
1FC07FF4001F80
2F80FBF0002F40
3F02E7E0003E00
7E0BCBD000BD00
BD1F0BC001F800
FC3D0FC002E000
F8B80FC00BC000
F9E00FC01F4000
FAC00BC0BD0000
7F4007FBE00000
2E0001FE400000
ENDCHAR
STARTCHAR wcircumflex
ENCODING 373
SWIDTH 750 0
DWIDTH 21 0
BBX 20 22 1 0
BITMAP
0000001000
0000007C00
000002FD00
00000BFE00
00007E2F00
0003F41F40
0001400500
0000000000
0BD00000B8
0FF00680FD
07F00FC0BE
07E02F807E
07D07F007D
0BC0BE007D
1F81FD00BC
2F03FC00F4
3E0BF801F0
7D2DF403D0
BCB4F80B80
FED0FD6E00
FF40BFF400
79002F9000
ENDCHAR
STARTCHAR Ycircumflex
ENCODING 374
SWIDTH 580 0
DWIDTH 16 0
BBX 20 35 0 -8
BITMAP
0000000400
0000002E00
000001BF40
00000BEF80
00007F4BD0
0000140150
001F800078
002FD000BD
000FD001F8
000FC003F4
001F8007F0
003F400FE0
007F001FC0
00BD003F80
01FC007F40
02F400FF00
03F002FE00
0BE003FD00
0FC00BFC00
1F801FF800
2F403EF400
3F00B6F000
7E01E7E000
7E078BC000
7E5E1F8000
7FF82F4000
1F907E0000
0000BC0000
0001F80000
0003E00000
000BC00000
002F400000
00BD000000
0BF4000000
1F80000000
ENDCHAR
STARTCHAR ycircumflex
ENCODING 375
SWIDTH 549 0
DWIDTH 15 0
BBX 15 30 1 -8
BITMAP
00000100
00000B80
00002FC0
0001FBD0
000BD3E0
007E42F0
00140050
00000000
07E001F0
07F402F4
03F007F0
07F00FE0
0BE01FD0
0FC03FC0
1F80BF80
3F41FF40
7F03FF00
BD0B7D00
FC2DBC00
FDB4F800
FFD1F400
7E42F000
0003D000
000BC000
001F4000
007E0000
00FC0000
07F00000
2FC00000
29000000
ENDCHAR
STARTCHAR Ydieresis
ENCODING 376
SWIDTH 580 0
DWIDTH 16 0
BBX 20 34 0 -8
BITMAP
00002E02F4
0000BF47F8
0000BF47F8
00003E02E0
0000000000
001F800078
002FD000BD
000FD001F8
000FC003F4
001F8007F0
003F400FE0
007F001FC0
00BD003F80
01FC007F40
02F400FF00
03F002FE00
0BE003FD00
0FC00BFC00
1F801FF800
2F403EF400
3F00B6F000
7E01E7E000
7E078BC000
7E5E1F8000
7FF82F4000
1F907E0000
0000BC0000
0001F80000
0003E00000
000BC00000
002F400000
00BD000000
0BF4000000
1F80000000
ENDCHAR
STARTCHAR Zacute
ENCODING 377
SWIDTH 501 0
DWIDTH 14 0
BBX 18 27 -1 0
BITMAP
0000000F40
0000001F80
0000003F40
000000BD00
000002E000
0000000000
0064016F80
007FFFFFD0
003FFF9BE0
001BE42FD0
000000BF40
000002FE00
000007F800
00001FE000
00007F8000
0001FE0000
0007F80000
000FE00000
003F800000
00BE000000
02F8000000
07F0000000
0FC0000000
2F41AA8000
7E6FFFE000
7FFFFFF000
2F9401B000
ENDCHAR
STARTCHAR zacute
ENCODING 378
SWIDTH 430 0
DWIDTH 12 0
BBX 14 22 0 0
BITMAP
000003C0
000007E0
00000BD0
00001F80
00007E00
0001F400
00014000
00000000
02E41B40
02FFFF80
00AA6F80
0000BF00
0002FC00
001FE000
007F8000
01FD0000
07F40000
1FD00000
3F400000
BEBFD000
FFFFF000
7941B000
ENDCHAR
STARTCHAR Zdotaccent
ENCODING 379
SWIDTH 501 0
DWIDTH 14 0
BBX 18 27 -1 0
BITMAP
0000014000
00000FE000
00001FE000
00000FD000
0000054000
0000000000
0064016F80
007FFFFFD0
003FFF9BE0
001BE42FD0
000000BF40
000002FE00
000007F800
00001FE000
00007F8000
0001FE0000
0007F80000
000FE00000
003F800000
00BE000000
02FC000000
07F0000000
0FD0000000
2F406A4000
7E6FFFD000
7FFFFFF000
2F9401B000
ENDCHAR
STARTCHAR zdotaccent
ENCODING 380
SWIDTH 430 0
DWIDTH 12 0
BBX 13 21 0 0
BITMAP
0001F400
0003FC00
0003F800
0001F400
00000000
00000000
00000000
02E41B40
02FFFF80
00AA6F80
0000BF00
0002FC00
001FE000
007F8000
01FD0000
07F40000
1FD00000
3F400000
BEBFD000
FFFFF000
7941B000
ENDCHAR
STARTCHAR Zcaron
ENCODING 381
SWIDTH 501 0
DWIDTH 14 0
BBX 18 27 -1 0
BITMAP
0000690090
00007F47E0
00001FAF80
00000FF900
0000064000
0000000000
0064016F80
007FFFFFD0
003FFF9BE0
001BE42FD0
000000BF40
000002FE00
000007F800
00001FE000
00007F8000
0001FE0000
0007F80000
000FE00000
003F800000
00BE000000
02F8000000
07F0000000
0FC0000000
2F41AA8000
7E6FFFE000
7FFFFFF000
2F9401B000
ENDCHAR
STARTCHAR zcaron
ENCODING 382
SWIDTH 430 0
DWIDTH 12 0
BBX 15 21 0 0
BITMAP
001A0028
001F80B8
000BC7F4
0007EF80
0003F800
00014000
00000000
02E41B40
02FFFF80
00AA6F80
0000BF00
0002FC00
001FE000
007F8000
01FD0000
07F40000
1FD00000
3F400000
BEBFD000
FFFFF000
7941B000
ENDCHAR
STARTCHAR florin
ENCODING 402
SWIDTH 466 0
DWIDTH 13 0
BBX 23 30 -6 -8
BITMAP
000000002F80
00000000FEE0
00000003E070
0000000BC0B4
0000000F41F4
0000002F07F0
0000003E0FE0
000000BD0B80
000000FC0000
000001F80000
000002FFD000
00001FFFF400
0000BFFFE000
00006FD00000
00000FC00000
00000FC00000
00001F800000
00002F400000
00003F000000
00003F000000
00007E000000
0000BD000000
0000FC000000
0001F8000000
0002F4000000
0403E0000000
2D0BD0000000
7E1F80000000
3FBE00000000
0BF800000000
ENDCHAR
STARTCHAR AEacute
ENCODING 508
SWIDTH 878 0
DWIDTH 25 0
BBX 29 27 -2 0
BITMAP
00000000000F4000
00000000001F8000
00000000003F4000
0000000000BD0000
0000000002E00000
0000000000000000
00000001BE6BF900
0000000BFFFFAF40
0000002F5FF40780
000000BC2FC00B80
000002F0BF001F80
000007D0FD00BF00
00001F41FC02FE00
00003E01F803F800
0000BC01F8019000
0001F400F8000000
0003FAFFFFF80000
001BFFFFFFFC0000
007FFFFFFF900000
007F0002FD000000
007D000BF4000000
00F8000FD0000000
02F4001F80024000
07E0001F800B4000
0FC0001FC07F0000
7F40000BFBFD0000
B9000001BF900000
ENDCHAR
STARTCHAR aeacute
ENCODING 509
SWIDTH 770 0
DWIDTH 22 0
BBX 20 22 1 0
BITMAP
0000003D00
0000007E00
000000BD00
000001F800
000007E000
00000F8000
0000140000
0000000000
001BE1EAF8
00BEBFFEBE
02F41FF43F
0BD01FD03F
1F802F80BF
3F403F41FE
7E007F07F8
BD00FEBFD0
FC01FFF900
FC03FE0000
FC0BBE0014
BD1D7F00B4
7EB82FEBE0
1F9006FE40
ENDCHAR
STARTCHAR Scommaaccent
ENCODING 536
SWIDTH 474 0
DWIDTH 13 0
BBX 16 29 0 -8
BITMAP
0001BF80
000BEAF4
002F40B8
00BD007D
00F8007D
01F400BD
02F401FC
03F407F8
03F80FF0
02FC0780
01FE0000
00FF4000
007FC000
001FE000
000BF000
1903F000
3D02F000
7D01F000
7E02D000
2FAF4000
0BF90000
00000000
01900000
07F00000
03F00000
02E00000
03D00000
0B800000
1D000000
ENDCHAR
STARTCHAR scommaaccent
ENCODING 537
SWIDTH 423 0
DWIDTH 12 0
BBX 12 22 0 -8
BITMAP
002FE4
01FAFD
03E03E
07E03E
07F028
03F400
02FD00
00FF00
007F40
142F80
781F80
BD1F80
7FBE00
1BE400
000000
064000
1FC000
0FC000
0BC000
0F4000
2E0000
740000
ENDCHAR
STARTCHAR dotlessj
ENCODING 567
SWIDTH 277 0
DWIDTH 8 0
BBX 12 22 -5 -8
BITMAP
0000BD
0000FE
0000BE
0000BE
0000BD
0000FC
0000FC
0001F8
0002F4
0003F0
0007E0
000BD0
000FC0
001F80
003F00
007E00
00BC00
01F400
03E000
0BC000
7E0000
B40000
ENDCHAR
STARTCHAR circumflex
ENCODING 710
SWIDTH 354 0
DWIDTH 10 0
BBX 10 6 0 15
BITMAP
000640
002F80
00BFC0
07EBC0
6F83E0
7901E0
ENDCHAR
STARTCHAR caron
ENCODING 711
SWIDTH 381 0
DWIDTH 11 0
BBX 10 6 1 15
BITMAP
640090
7D07E0
3E2F80
2FF900
1F9000
050000
ENDCHAR
STARTCHAR breve
ENCODING 728
SWIDTH 344 0
DWIDTH 10 0
BBX 9 5 1 16
BITMAP
380180
B80780
BD5F00
7FFD00
1FE000
ENDCHAR
STARTCHAR dotaccent
ENCODING 729
SWIDTH 217 0
DWIDTH 6 0
BBX 4 4 2 17
BITMAP
7E
FF
FF
7D
ENDCHAR
STARTCHAR ring
ENCODING 730
SWIDTH 402 0
DWIDTH 11 0
BBX 9 7 3 15
BITMAP
06F900
1FAF00
3E0F40
7C1F40
7C2F00
3EBD00
1BE000
ENDCHAR
STARTCHAR ogonek
ENCODING 731
SWIDTH 311 0
DWIDTH 9 0
BBX 7 9 1 -7
BITMAP
0014
00B4
07D0
0F40
2D00
7D00
BD40
BFC0
7E00
ENDCHAR
STARTCHAR tilde
ENCODING 732
SWIDTH 397 0
DWIDTH 11 0
BBX 12 5 1 16
BITMAP
02E009
0FF81D
2FFE78
787FF0
601F80
ENDCHAR
STARTCHAR hungarumlaut
ENCODING 733
SWIDTH 392 0
DWIDTH 11 0
BBX 12 7 0 15
BITMAP
006018
00F43D
01F47C
03E0F8
0BC2E0
2F0B80
781E00
ENDCHAR
STARTCHAR pi
ENCODING 960
SWIDTH 640 0
DWIDTH 18 0
BBX 19 14 -1 0
BITMAP
006FFFFFFC
02FFFFFFF8
0257E6BF90
0007C07E00
000B80BD00
000F40F800
002E01F400
003D02F400
00BC03F000
01F807E000
07F007E000
1FE007E600
7F8003FE00
2E0001F800
ENDCHAR
STARTCHAR uni1E02
ENCODING 7682
SWIDTH 551 0
DWIDTH 15 0
BBX 16 27 1 0
BITMAP
00000500
00002FC0
00003FC0
00002F80
00000500
00000000
006BFE90
0BFFABF4
2FE400BD
0A18007E
007F003E
00FE007E
02FC00BD
03F401FC
07F007F4
0FD06FD0
1FEBFE00
2FFFF800
3F907E00
7E001F40
7D001F80
BC001F80
BC002F40
B800BE00
BC06F800
3FAFD000
1BF90000
ENDCHAR
STARTCHAR uni1E03
ENCODING 7683
SWIDTH 525 0
DWIDTH 15 0
BBX 15 23 1 0
BITMAP
003C0000
007D0000
007D02E0
00BD0BF4
00FC0BF4
01F803E0
01F40000
02F00000
03E00000
07D2F900
0BDFBF00
0FB82F40
1FE02F80
2FC02F80
3F402F80
7F003F40
BD007F00
BC00BE00
F801FD00
F803F400
B81FE000
3FFF4000
1BE40000
ENDCHAR
STARTCHAR uni1E0A
ENCODING 7690
SWIDTH 630 0
DWIDTH 18 0
BBX 17 27 1 0
BITMAP
0000054000
00001FE000
00001FE000
00001FD000
0000054000
0000000000
01AFFE4000
0FFEABF400
0FE000BE00
0140002F40
002F400F80
007F400FC0
00BE000FC0
01FC000FC0
02F8000FC0
07F4001F80
0BE0002F80
0FD0003F00
1FC000BE00
2F8001FC00
3F4007F400
7F000FE000
7E003F8000
BD01FE0000
BD0BF40000
7EBF800000
1BE8000000
ENDCHAR
STARTCHAR uni1E0B
ENCODING 7691
SWIDTH 557 0
DWIDTH 16 0
BBX 17 23 1 0
BITMAP
0000000780
0000000FC0
006E001F80
00BF403F00
00BF007E00
007D00BD00
000000FC00
000001F800
000002F400
000BE7F000
007FBFE000
01F80FD000
07E00FC000
0FC01F8000
2F402F4000
3F003F4000
7E007F0000
BD00FE0000
BD01FD0000
BD07FD0000
BD0E7D6000
7FB87FE000
1BD01F8000
ENDCHAR
STARTCHAR uni1E1E
ENCODING 7710
SWIDTH 518 0
DWIDTH 15 0
BBX 17 27 1 0
BITMAP
0000014000
00000FF000
00000FF000
00000BE000
0000014000
0000000000
06FFA95740
2FFFFFFF00
7FFFFFF900
7E01F00000
3803E00000
0007D00000
000FC00000
001F800000
002F400000
003FAA0000
00BFFF8000
07FFFF8000
06FD000000
01FC000000
02F8000000
03F0000000
0BE0000000
1FC0000000
2F40000000
BD00000000
F400000000
ENDCHAR
STARTCHAR uni1E1F
ENCODING 7711
SWIDTH 393 0
DWIDTH 11 0
BBX 16 31 -1 -4
BITMAP
00001F80
00003FD0
00002FC0
00001F40
00000000
00000BF8
00003F6E
0000BC2F
0001F83F
0002F0FE
0003E0B8
0007D000
000BC000
000F8000
001FEA00
006FFF80
07FFFF80
07BE0000
007D0000
00BC0000
00FC0000
01F80000
02F40000
03F00000
07E00000
0BD00000
0FC00000
1F800000
3F400000
7E000000
78000000
ENDCHAR
STARTCHAR uni1E40
ENCODING 7744
SWIDTH 931 0
DWIDTH 26 0
BBX 29 27 -3 0
BITMAP
0000000000054000
00000000001FD000
00000000002FD000
00000000001FC000
0000000000050000
0000000000000000
00000002F8001B80
0000001FFC00BFC0
0000007EF802EF80
000001F2F407DF40
000003D7E00F6F00
00000B8BD02E3E00
00001F0FC07C7D00
00003D1F80F4BC00
0000BC2F81E1F800
0000F42F43D2F800
0002E03F0B82F400
0007D07E0F43F000
000B807E2E07E000
001F40BD3D0BD000
003E00BDB80FC000
007C00BDF00FC000
01F800BEE01F8000
02F000BFC01F8000
0BD000BF400FD600
7F4000BE000BFE00
BD0000380002F800
ENDCHAR
STARTCHAR uni1E41
ENCODING 7745
SWIDTH 814 0
DWIDTH 23 0
BBX 22 21 0 0
BITMAP
0000007E0000
000000FF0000
000000FF0000
0000007D0000
000000000000
000000000000
000000000000
02F407D01B80
02FC2FF07FE0
01FCBFF1FFE0
01F9F5F3D7E0
02F7C1EB0BD0
03EF03FD1F80
07FC07F42F40
0BF40BE07E00
0FD01FC0BD00
2F802F40FC00
3F007E00F800
BE00BD01FD80
FC00FC00FFC0
7800B4007E00
ENDCHAR
STARTCHAR uni1E56
ENCODING 7766
SWIDTH 553 0
DWIDTH 16 0
BBX 19 27 -1 0
BITMAP
0000001500
0000007F40
000000BF40
0000007F00
0000001400
0000000000
0001BFE900
002FFEAF80
00FF9007E0
00FD0002F0
0021E002F4
0003F402F4
0007E003F0
000BD00BE0
001FC02FD0
002F80BF40
003F47FD00
007FBFE000
00BFF90000
00FC000000
01F8000000
03F0000000
07E0000000
0FC0000000
2F40000000
BE00000000
B400000000
ENDCHAR
STARTCHAR uni1E57
ENCODING 7767
SWIDTH 550 0
DWIDTH 15 0
BBX 17 29 -2 -8
BITMAP
000007E000
00000FF000
00000FF000
000007D000
0000000000
0000000000
0000000000
007E06F800
007F6EBE00
002FB82F00
003FE02F40
003F802F40
007F403F40
00BE003F00
00BD007E00
00F800FD00
01F802F800
02F407F000
03F81FC000
07FFFE0000
07DBE40000
0BC0000000
0F80000000
1F40000000
2F00000000
3E00000000
7D00000000
FC00000000
B400000000
ENDCHAR
STARTCHAR uni1E60
ENCODING 7776
SWIDTH 474 0
DWIDTH 13 0
BBX 16 27 0 0
BITMAP
00000140
00000FE0
00001FE0
00000FD0
00000140
00000000
0001BF80
000BEAF4
002F40B8
00BD007D
00F8007D
01F400BD
02F401FC
03F407F8
03F80FF0
02FC0780
01FE0000
00FF4000
007FC000
001FE000
000BF000
1903F000
3D02F000
7D01F000
7E02D000
2FAF4000
0BF90000
ENDCHAR
STARTCHAR uni1E61
ENCODING 7777
SWIDTH 423 0
DWIDTH 12 0
BBX 12 21 0 0
BITMAP
0000BD
0001FE
0001FE
0000B8
000000
000000
000000
002FE4
01FAFD
03E03E
07E03E
07F028
03F400
02FD00
00FF00
007F40
142F80
781F80
BD1F80
7FBE00
1BE400
ENDCHAR
STARTCHAR uni1E6A
ENCODING 7786
SWIDTH 430 0
DWIDTH 12 0
BBX 16 27 1 0
BITMAP
00000500
00003F80
00007FC0
00003F40
00000500
00000000
0BFEA557
3FFFFFFE
BFFFFFF8
BD02F400
7403F000
0007E000
000BD000
000FC000
001F8000
002F4000
003F0000
007E0000
00BD0000
00FC0000
01F80000
02F40000
03E00000
0BD00000
1F800000
7E000000
B8000000
ENDCHAR
STARTCHAR uni1E6B
ENCODING 7787
SWIDTH 358 0
DWIDTH 10 0
BBX 10 22 2 0
BITMAP
000B80
002FD0
002FD0
000F40
002800
00BD00
00FC00
02F400
7FFFE0
1FE940
0FC000
1F8000
2F4000
3F0000
7E0000
7D0000
BC0000
BC0000
FC0900
BD7C00
7FF400
2F9000
ENDCHAR
STARTCHAR Wgrave
ENCODING 7808
SWIDTH 941 0
DWIDTH 26 0
BBX 26 27 2 0
BITMAP
0000001D000000
0000003E000000
0000003F400000
0000001FC00000
00000002E00000
00000000000000
0AF80000000B80
7FFE0000001FD0
BFFF0000000FE0
292F4000000BF0
007F0001400BF0
00BD001FD007F0
01FC007F8007E0
03F402FE000BE0
07F00BFD000BD0
0BD02FF8000FC0
1FC07FF4001F80
2F41FBF0002F40
3F03E7E0007E00
7E0B8BD000BD00
BD1F0BC001F800
FC3D0FC003E000
F8B40FC00BC000
F9E00FC02F4000
FFC00BD1FD0000
7F4007FFE00000
2E0001FE400000
ENDCHAR
STARTCHAR wgrave
ENCODING 7809
SWIDTH 750 0
DWIDTH 21 0
BBX 20 22 1 0
BITMAP
00000B4000
00001F8000
00001F8000
00001F8000
00000B8000
000007C000
0000019000
0000000000
0BD00000B8
0FF00680FD
07F00FC0BE
07E02F807E
07D07F007D
0BC0BE007D
1F81FD00BC
2F03FC00F4
3E0BF801F0
7D2DF403D0
BCB4F80B80
FED0FD6E00
FF40BFF400
79002F9000
ENDCHAR
STARTCHAR Wacute
ENCODING 7810
SWIDTH 941 0
DWIDTH 26 0
BBX 26 27 2 0
BITMAP
000000001E0000
000000002F4000
000000007F0000
00000001FD0000
00000003D00000
00000000000000
0AF80000000B80
7FFE0000001FD0
BFFF0000000FE0
292F4000000BF0
007F0001400BF0
00BD001FD007F0
01FC007F8007E0
03F801FF000BE0
07F007FD000BD0
0BE01FF8000FC0
1FC07FF4001F80
2F80FBF0002F40
3F02E7E0003E00
7E0BCBD000BD00
BD1F0BC001F800
FC3D0FC002E000
F8B80FC00BC000
F9E00FC01F4000
FAC00BC0BD0000
7F4007FBE00000
2E0001FE400000
ENDCHAR
STARTCHAR wacute
ENCODING 7811
SWIDTH 750 0
DWIDTH 21 0
BBX 20 22 1 0
BITMAP
0000007800
000000BD00
000000FC00
000002F400
000007D000
00001F4000
0000140000
0000000000
0BD00000B8
0FF00680FD
07F00FC0BE
07E02F807E
07D07F007D
0BC0BE007D
1F81FD00BC
2F03FC00F4
3E0BF801F0
7D2DF403D0
BCB4F80B80
FED0FD6E00
FF40BFF400
79002F9000
ENDCHAR
STARTCHAR Wdieresis
ENCODING 7812
SWIDTH 941 0
DWIDTH 26 0
BBX 26 27 2 0
BITMAP
00000054054000
000002FD1FE000
000002FD1FE000
000001FC1FD000
00000050054000
00000000000000
0AF80000000B80
7FFE0000001FD0
BFFF0000000FE0
292F4000000BF0
007F0001400BF0
00BD001FD007F0
01FC007F8007E0
03F402FE000BE0
07F00BFD000BD0
0BD02FF8000FC0
1FC07FF4001F80
2F41FBF0002F40
3F03E7E0007E00
7E0B8BD000BD00
BD1F0BC001F800
FC3D0FC003E000
F8B40FC00BC000
F9E00FC02F4000
FFC00BD1FD0000
7F4007FFE00000
2E0001FE400000
ENDCHAR
STARTCHAR wdieresis
ENCODING 7813
SWIDTH 750 0
DWIDTH 21 0
BBX 20 21 1 0
BITMAP
0001F80B80
0002FD2FE0
0002FC1FD0
0001F40B80
0000000000
0000000000
0000000000
0BD00000B8
0FF00680FD
07F00FC0BE
07E02F807E
07D07F007D
0BC0BE007D
1F81FD00BC
2F03FC00F4
3E0BF801F0
7D2DF403D0
BCB4F80B80
FED0FD6E00
FF40BFF400
79002F9000
ENDCHAR
STARTCHAR Ygrave
ENCODING 7922
SWIDTH 580 0
DWIDTH 16 0
BBX 20 35 0 -8
BITMAP
0000014000
00000B8000
00000FC000
00000BE000
000002F800
0000001400
001F800078
002FD000BD
000FD001F8
000FC003F4
001F8007F0
003F400FE0
007F001FC0
00BD003F80
01FC007F40
02F400FF00
03F002FE00
0BE003FD00
0FC00BFC00
1F801FF800
2F403EF400
3F00B6F000
7E01E7E000
7E078BC000
7E5E1F8000
7FF82F4000
1F907E0000
0000BC0000
0001F80000
0003E00000
000BC00000
002F400000
00BD000000
0BF4000000
1F80000000
ENDCHAR
STARTCHAR ygrave
ENCODING 7923
SWIDTH 549 0
DWIDTH 15 0
BBX 15 30 1 -8
BITMAP
0001F000
0003F000
0003F000
0002F000
0001F400
0000B800
00001800
00000000
07E001F0
07F402F4
03F007F0
07F00FE0
0BE01FD0
0FC03FC0
1F80BF80
3F41FF40
7F03FF00
BD0B7D00
FC2DBC00
FDB4F800
FFD1F400
7E42F000
0003D000
000BC000
001F4000
007E0000
00FC0000
07F00000
2FC00000
29000000
ENDCHAR
STARTCHAR endash
ENCODING 8211
SWIDTH 751 0
DWIDTH 21 0
BBX 17 2 2 7
BITMAP
3FFFFFFFC0
7FFFFFFF40
ENDCHAR
STARTCHAR emdash
ENCODING 8212
SWIDTH 1066 0
DWIDTH 30 0
BBX 26 2 2 7
BITMAP
3FFFFFFFFFFFF0
7FFFFFFFFFFFD0
ENDCHAR
STARTCHAR quoteleft
ENCODING 8216
SWIDTH 268 0
DWIDTH 8 0
BBX 5 7 4 16
BITMAP
0740
2E00
7C00
F800
FC00
FD00
7800
ENDCHAR
STARTCHAR quoteright
ENCODING 8217
SWIDTH 268 0
DWIDTH 8 0
BBX 5 7 4 16
BITMAP
1F40
2F80
1F80
0F80
1F00
3D00
A400
ENDCHAR
STARTCHAR quotesinglbase
ENCODING 8218
SWIDTH 268 0
DWIDTH 8 0
BBX 5 7 0 -3
BITMAP
1F40
2F80
1FC0
0F80
1F40
3D00
A400
ENDCHAR
STARTCHAR quotedblleft
ENCODING 8220
SWIDTH 485 0
DWIDTH 14 0
BBX 11 7 4 16
BITMAP
02C078
1F42E0
3D0B80
BC0F40
FC1F80
FD1FC0
B80F40
ENDCHAR
STARTCHAR quotedblright
ENCODING 8221
SWIDTH 480 0
DWIDTH 13 0
BBX 11 7 4 16
BITMAP
0B81F4
0FD2F8
0BD1F8
0BC1F4
0F42E0
2D07C0
A41E00
ENDCHAR
STARTCHAR quotedblbase
ENCODING 8222
SWIDTH 463 0
DWIDTH 13 0
BBX 11 7 0 -3
BITMAP
1F42E0
2F83F4
1FC2F4
0F81F0
1F42E0
3D0780
A41E00
ENDCHAR
STARTCHAR dagger
ENCODING 8224
SWIDTH 488 0
DWIDTH 14 0
BBX 12 21 2 0
BITMAP
000B80
000FD0
001FD0
001FC0
002FC5
3FFFFF
1BFFF9
007F00
00BE00
00FD00
01FC00
02F400
02F000
03E000
07D000
0B8000
0F4000
1E0000
3D0000
780000
600000
ENDCHAR
STARTCHAR daggerdbl
ENCODING 8225
SWIDTH 488 0
DWIDTH 14 0
BBX 12 21 2 0
BITMAP
000B80
000FD0
001FD0
001FC0
002FC5
3FFFFF
1BFFF9
007F00
00BE00
00FD00
01FC00
02F850
FBFFE0
6FFF80
07D000
0BC000
0F4000
1F0000
3D0000
780000
600000
ENDCHAR
STARTCHAR bullet
ENCODING 8226
SWIDTH 437 0
DWIDTH 12 0
BBX 7 7 3 6
BITMAP
1BE0
7FF4
BFF8
FFF8
BFF4
3FE0
0640
ENDCHAR
STARTCHAR ellipsis
ENCODING 8230
SWIDTH 810 0
DWIDTH 23 0
BBX 21 4 0 0
BITMAP
2F403E007E00
7FC0BF80FF40
7FC0BF80FF00
2F407E00BD00
ENDCHAR
STARTCHAR perthousand
ENCODING 8240
SWIDTH 1184 0
DWIDTH 33 0
BBX 29 21 2 0
BITMAP
01BD0002D0000000
0BEF400B80000000
2F4BC02F40000000
7E0BC07D00000000
BD0FC0F800000000
FC1F82F000000000
F82F47D000000000
BC7E0F8000000000
3FF82F0000000000
06407D0000000000
0000F80000000000
0002F00000000000
0007D02FE002FE00
000F81F9F40FDF80
002F03F0B82F4BC0
007D0BD0FC7E0BC0
00F80FC0F8BC0FC0
02F00F82F4BC1F80
07D00F87E0BC3F00
0F800BEFC07EFD00
1E0001FE001BE000
ENDCHAR
STARTCHAR guilsinglleft
ENCODING 8249
SWIDTH 413 0
DWIDTH 12 0
BBX 9 11 2 3
BITMAP
000640
002F00
01F800
1BE000
7F4000
FD0000
BE0000
2F8000
0BE000
02F400
00B800
ENDCHAR
STARTCHAR guilsinglright
ENCODING 8250
SWIDTH 416 0
DWIDTH 12 0
BBX 9 11 1 3
BITMAP
0B8000
0BE000
02F800
00BD00
003F40
001FC0
007F40
02F800
0BD000
3E0000
640000
ENDCHAR
STARTCHAR fraction
ENCODING 8260
SWIDTH 580 0
DWIDTH 16 0
BBX 15 23 1 0
BITMAP
00000014
000000B8
000002F0
000007D0
00000BC0
00001F40
00003E00
0000BC00
0000F400
0002F000
0007D000
000F8000
001F0000
003E0000
00BC0000
01F40000
03E00000
07C00000
0F800000
2F000000
7D000000
B8000000
E0000000
ENDCHAR
STARTCHAR Euro
ENCODING 8364
SWIDTH 622 0
DWIDTH 17 0
BBX 18 21 1 0
BITMAP
000001BE00
00001FEBC0
0000BE02D0
0002F803E0
000BF007E0
001FD01FD0
003F807F80
007F003F00
00FE000400
0BFFFE0000
07FA940000
03F4000000
03F0000000
7FFFF80000
1BFA500000
07F0000000
07F0000000
03F4009000
02F806E000
00BEAFD000
001BF90000
ENDCHAR
STARTCHAR trademark
ENCODING 8482
SWIDTH 1084 0
DWIDTH 30 0
BBX 24 12 4 10
BITMAP
015000010004
2FFFFD1F80BD
7FFFF87F82FD
00B800FF47BC
00F401DF4FBC
02F003DF1DB8
03E0079F38F8
07D00F1F74F4
07C01E1FE1F4
07C03C1FD1F4
07D0B41F81F8
02E1E00B00B8
ENDCHAR
STARTCHAR Omega
ENCODING 8486
SWIDTH 839 0
DWIDTH 24 0
BBX 22 22 1 0
BITMAP
000015000000
0006FFF80000
002FE5BF4000
01FD000BE000
03F40002F800
0BE00000FD00
0FC00000BE00
2F8000007F00
2F8000003F40
3F4000003F80
3F4000002F80
3F8000003F80
2F8000003F40
1FC000007F00
0FD00000BE00
0BE00000FD00
03F40002F800
01F80003E000
107D000B8040
791F402E07C0
BFFFC07FFFD0
2FFFD0BFFF80
ENDCHAR
STARTCHAR partialdiff
ENCODING 8706
SWIDTH 580 0
DWIDTH 16 0
BBX 16 23 0 0
BITMAP
00001A80
0000BFF4
0002F47C
0007E02E
0007D02E
0002801F
0000001F
0001A92F
002FFFAF
00BF42FE
02FD00FE
07F400FD
0FE001FC
1FD002F8
2F8003F4
3F4007F0
3F400FE0
7F002FC0
7F007F40
3E00FE00
2F02F800
1FEFE000
07FE4000
ENDCHAR
STARTCHAR Delta
ENCODING 8710
SWIDTH 663 0
DWIDTH 19 0
BBX 18 17 0 0
BITMAP
0000280000
0000BD0000
0001FE0000
0003EF4000
00078F8000
000F0BD000
002E07E000
003C02F000
00B401F800
00F000FC00
02D0007E00
0780003F00
0B40001F40
1E00000FC0
3D00000BD0
7EAAAAABE0
BFFFFFFFD0
ENDCHAR
STARTCHAR product
ENCODING 8719
SWIDTH 667 0
DWIDTH 19 0
BBX 15 25 2 -3
BITMAP
01555550
2FFFFFF8
BD5555F8
FD0001F8
FD0001F8
FD0001F8
FD0001F8
FD0001F8
FD0001F8
FD0001F8
FD0001F8
FD0001F8
FD0001F8
FD0001F8
FD0001F8
FD0001F8
FD0001F8
FD0001F8
FD0001F8
FD0001F8
FD0001F8
FD0001F8
FD0001F8
F80001F4
50000040
ENDCHAR
STARTCHAR summation
ENCODING 8721
SWIDTH 677 0
DWIDTH 19 0
BBX 17 25 1 -3
BITMAP
0155555500
0BFFFFFF40
1FEAAA9500
1FE0000000
0BF4000000
03FC000000
01FE000000
00BF400000
003FC00000
001FE00000
000BF40000
0003FC0000
0001FC0000
0002F40000
0007E00000
001F800000
003F000000
00FC000000
02F4000000
0BD0000000
1F80000000
7E00000000
FFFFFFFD00
FFFFFFFD00
6AAAAAA400
ENDCHAR
STARTCHAR minus
ENCODING 8722
SWIDTH 617 0
DWIDTH 17 0
BBX 14 3 2 9
BITMAP
15555540
FFFFFFE0
AAAAAA80
ENDCHAR
STARTCHAR radical
ENCODING 8730
SWIDTH 709 0
DWIDTH 20 0
BBX 21 27 1 0
BITMAP
000000000180
0000000003C0
000000000BC0
000000000FC0
000000002F80
000000003F00
00000000BE00
00000000FC00
00000002F400
00000003F000
0000000BD000
0000000F8000
0000002F4000
0690003E0000
0FF000BC0000
3FF400F40000
FAF402F00000
51F803D00000
00F80B800000
00FC0F000000
00BC2E000000
007D7C000000
007EB4000000
003FF0000000
002FD0000000
002F80000000
001F00000000
ENDCHAR
STARTCHAR infinity
ENCODING 8734
SWIDTH 681 0
DWIDTH 19 0
BBX 17 9 1 6
BITMAP
0150005400
0BFD0BFE00
2FFF7FEF80
7E07FE03C0
7802FC03C0
780BF407C0
7D6FFD6F80
2FFF5FFF00
07F806F800
ENDCHAR
STARTCHAR integral
ENCODING 8747
SWIDTH 583 0
DWIDTH 16 0
BBX 23 33 -3 -6
BITMAP
000000000500
000000006FD0
00000001FEB0
00000003F474
0000000BD0B8
0000000FC1F8
0000002F47F0
0000003F07E0
0000007E0040
000000BD0000
000000FC0000
000001F80000
000002F40000
000003F00000
000007E00000
00000BD00000
00000FC00000
00001F800000
00002F800000
00003F400000
00003F000000
00007E000000
0000BD000000
0000FC000000
0001F8000000
0F42F4000000
2F87E0000000
7E0BD0000000
7C1F80000000
783F40000000
39FD00000000
1FF400000000
014000000000
ENDCHAR
STARTCHAR approxequal
ENCODING 8776
SWIDTH 671 0
DWIDTH 19 0
BBX 17 13 1 3
BITMAP
002A400140
01FFE00380
07EFF80B40
0F42FEBE00
1D00BFF800
18002F9000
0014000000
02FF400A00
0BFFD01E00
2E5FF47C00
3807FFF400
7001FFD000
1000190000
ENDCHAR
STARTCHAR notequal
ENCODING 8800
SWIDTH 617 0
DWIDTH 17 0
BBX 14 19 2 1
BITMAP
00000040
000007C0
00000F40
00002E00
00007D00
0000F800
7FFFFFF0
7FFFFFE0
000B8000
001F0000
003E0000
6ABEAA90
FFFFFFE0
57E55540
07C00000
0F400000
2E000000
7C000000
50000000
ENDCHAR
STARTCHAR lessequal
ENCODING 8804
SWIDTH 704 0
DWIDTH 20 0
BBX 15 19 1 0
BITMAP
00000024
000001F4
00001FE0
0001BE40
001BF400
00BF8000
0BF80000
7F900000
3FD00000
07F90000
00BF8000
000BF400
0001BF40
00001FE0
000001F4
00000010
00000000
2FFFFFF8
3FFFFFF4
ENDCHAR
STARTCHAR greaterequal
ENCODING 8805
SWIDTH 617 0
DWIDTH 17 0
BBX 15 19 1 0
BITMAP
28000000
3F800000
0BF40000
01BF4000
001FE400
0002FE00
00002FE0
000007F8
00002FE0
0001FE40
001BE400
00BF4000
07F40000
2F800000
78000000
00000000
00000000
2FFFFFF4
7FFFFFF0
ENDCHAR
STARTCHAR lozenge
ENCODING 9674
SWIDTH 580 0
DWIDTH 16 0
BBX 14 21 1 0
BITMAP
000F0000
002F8000
007FD000
00FAF000
01F1F800
03D0BC00
0B803E00
1F001F40
3D000BC0
780007D0
B80002E0
7D0002D0
2E000780
1F400F40
0BC02E00
03E07C00
01F0F400
00BAE000
007FD000
002F8000
000F0000
ENDCHAR
STARTCHAR commaaccent
ENCODING 63171
SWIDTH 250 0
DWIDTH 7 0
BBX 5 6 1 -7
BITMAP
1A00
3F80
1F40
1F00
3D00
B400
ENDCHAR
STARTCHAR ff
ENCODING 64256
SWIDTH 773 0
DWIDTH 22 0
BBX 27 27 -1 -4
BITMAP
00000190001640
00001FFD00BFE0
00007E2E01F4F4
0000BC2F03E0F8
0001F83F0BD1F8
0002F4BE0FC7F4
0003F0BC1F83E0
0007E0102F4040
000BD0003F0000
000FC0003E0000
001F80007D0000
002FFFFFFFF800
07FFFFFFFFFD00
0FFE5401F40000
007D0002F00000
00BD0003F00000
00FC0007E00000
01F8000BD00000
02F4000FC00000
03F0001F800000
07E0002F400000
0BD0003F000000
0FC0007E000000
1F8000BD000000
3F4001FC000000
7E0002F4000000
780002E0000000
ENDCHAR
STARTCHAR fi
ENCODING 64257
SWIDTH 623 0
DWIDTH 17 0
BBX 19 27 -1 -4
BITMAP
000000BF90
000007FAF4
00001F80B8
00007E00BC
0000FC00BC
0001F401FC
0003F003F8
0007E001E0
000BD00000
000FDAFFD0
006FFFFFE0
07FFA55BD0
0BFF000BC0
057E000F80
00BD001F40
00FC003F00
01F8007D00
01F400BC00
02F000F800
03E001F400
07D001F800
0BC001FF80
1F8000BE00
2F40000000
3F00000000
BD00000000
1400000000
ENDCHAR
STARTCHAR fl
ENCODING 64258
SWIDTH 637 0
DWIDTH 18 0
BBX 20 27 -1 -4
BITMAP
000001BF90
00000BFAF8
00002F80BD
00007E007D
0000FC007D
0001F400BD
0003F000BC
0007E000F8
000BC001F4
000F8002F0
001FFE03E0
00BFFF87D0
07FFFF4FC0
06BE001F80
00BD002F40
00FC003F00
00F8007E00
01F800BD00
02F400FC00
03F000FC00
07E000FD50
0FC000BFC0
1F80006E40
2F40000000
7F00000000
BD00000000
5400000000
ENDCHAR
STARTCHAR .notdef
ENCODING -1
SWIDTH 896 0
DWIDTH 25 0
BBX 27 26 1 -1
BITMAP
0000AAAAAAAAA0
0002FFFFFFFFF4
0007FFFFFFFFF4
000BFFFFFFFFF0
000FFFFFFFFFE0
001FFFFFFFFFE0
002FFD3FE07FD0
003FF03F40BFC0
007FE03D07FF80
007FE0342FFF40
00BFF020BFFF00
00FFF002FFFE00
01FFF40BFFFD00
02FFF80FFFFD00
03FFF80FFFFC00
07FFE00BFFF800
0BFF8103FFF400
0BFE0741AFF000
0FF81F800FE000
1FF47FE02FD000
2FFFFFFEFFC000
3FFFFFFFFF8000
7FFFFFFFFF4000
7FFFFFFFFF0000
3FFFFFFFFD0000
05555555500000
ENDCHAR
ENDFONT
